<?xml version="1.0" standalone="no"?>
<!DOCTYPE svg PUBLIC "-//W3C//DTD SVG 1.1//EN" "http://www.w3.org/Graphics/SVG/1.1/DTD/svg11.dtd" >
<svg xmlns="http://www.w3.org/2000/svg">
<metadata>Generated by IcoMoon</metadata>
<defs>
<font id="lato-semibold-webfont" horiz-adv-x="1024">
<font-face units-per-em="1024" ascent="960" descent="-64" />
<missing-glyph horiz-adv-x="1024" />
<glyph unicode="&#x20;" horiz-adv-x="512" d="" />
<glyph unicode="&#x21;" glyph-name="uni21" horiz-adv-x="282" d="M193.5 873v-293q0-46-4-90.25t-11-95.75h-74q-7 51-11 95.5t-4 90.5v293h104zM68.5 199q0 15 5.5 28t15.25 22.75 22.5 15.25 28.25 5.5q15 0 27.75-5.5t22.25-15.25 15.25-22.75 5.75-28q0-15.5-5.75-28.25t-15.25-22.5-22.5-15-27.5-5.25q-15.5 0-28.25 5.25t-22.5 15-15.25 22.5-5.5 28.25z" />
<glyph unicode="&#x22;" glyph-name="uni22" horiz-adv-x="393" d="M154 873v-147.5l-9.5-80q-3-19.5-11.25-30.5t-27.25-11q-16.5 0-25.25 11t-12.25 30.5l-9.5 80v147.5h95zM333.5 873v-147.5l-9.5-80q-3-19.5-11.25-30.5t-27.25-11q-16.5 0-25.25 11t-12.25 30.5l-9.5 80v147.5h95z" />
<glyph unicode="&#x23;" glyph-name="uni23" horiz-adv-x="594" d="M415 347.5l-40.5-212h-50.5q-7.5 0-14.5 3.5t-11.5 10-6.25 15 0.25 18l32.5 165.5h-115l-32.5-171q-4-22-18-31.5t-32-9.5h-48.5l41 212h-66.5q-17 0-24.5 10.5t-4 35l5.5 35.5h101l29.5 152.5h-114l8.5 46q3 18 14 26.25t34.5 8.25h68l34.5 173q3.5 18 16.5 28.25t31 10.25h49.5l-41-211.5h115.5l41 211.5h48.5q18 0 28-11.25t7-28.25l-34.5-172h106l-8.5-46.5q-3-18-14-26t-34.5-8h-60.5l-29-152.5h81.5q17 0 24.5-10.25t3.5-35.25l-5-35.5h-116.5zM221 428.5h115.5l29.5 152.5h-115z" />
<glyph unicode="&#x24;" glyph-name="uni24" horiz-adv-x="594" d="M243 130q-60.5 7-112.25 31.75t-88.75 62.25l33.5 51q4.5 6.5 11.75 10.75t16.25 4.25q10 0 22.75-8.75t29.75-20.25 40-22.5 54.5-16l19 248.5q-36.5 11-71.5 24.25t-62.75 36-45 56.5-17.25 84.75q0 38.5 15.25 74.5t44.25 64.75 71.25 47 96.75 20.75l5.5 68.5q0.5 11.5 8.75 20t21.25 8.5h41l-8-100q54-8 93.5-30t68.5-50l-26.5-41q-11.5-18-28-18-7.5 0-18 5.75t-24.5 13-32 15-40 11.75l-18-227.5q37-11.5 73-25t64.75-34.75 46.75-53 18-79.25q0-46.5-15.75-87.75t-46-72.75-74-51.25-99.25-23.25l-6.5-82q-0.5-11-8.5-20t-21-9h-41zM442.5 346q0 22-8.25 38.25t-22.25 28.75-33.5 21.25-42 16.75l-18-229.5q61 7 92.5 39.75t31.5 84.75zM176.5 683.5q0-21.5 7.75-38t21.25-29.25 32-22.25 40-17l16 208q-30.5-3-52.75-12.5t-36.5-23-21-30.25-6.75-35.75z" />
<glyph unicode="&#x25;" glyph-name="uni25" horiz-adv-x="830" d="M376 694.5q0-42.5-13.75-76.25t-36.75-57.5-53.25-36.25-63.25-12.5q-36 0-66.5 12.5t-52.75 36.25-35 57.5-12.75 76.25q0 43.5 12.75 78t35 58.5 52.75 36.75 66.5 12.75 66.25-12.75 52.5-36.75 35.25-58.5 13-78zM291 694.5q0 31-6.5 53t-17.5 35.5-26 19.5-32 6q-17.5 0-32.25-6t-25.5-19.5-17-35.25-6.25-53.25q0-30.5 6.25-51.5t17-34 25.5-18.75 32.25-5.75q17 0 32 5.75t26 18.75 17.5 34 6.5 51.5zM628.5 855q5.5 7 13.5 12.5t22.5 5.5h79.5l-543.5-720.5q-5.5-7-13.75-12t-19.75-5h-82zM788.5 309q0-42.5-13.75-76.25t-36.75-57.25-53.25-36-63.75-12.5q-36 0-66.25 12.5t-52.75 36-35 57.25-12.5 76.25q0 43.5 12.5 78t35 58.75 52.75 36.75 66.25 12.5 66.75-12.5 53-36.75 35-58.75 12.75-78zM703.5 309q0 31-6.5 53t-17.75 35.5-26.25 19.25-32 5.75-31.75-5.75-25.75-19.25-17.25-35.25-6.25-53.25q0-30.5 6.25-51.5t17.25-34 25.75-18.75 31.75-5.75 32 5.75 26.25 18.75 17.75 34 6.5 51.5z" />
<glyph unicode="&#x26;" glyph-name="uni26" horiz-adv-x="735" d="M343 881q43 0 77.5-13.25t59.5-35.75 39-51.75 16.5-60.75l-69.5-14q-9-2-17 2.5t-12.5 15.5q-4 13.5-11.5 26.25t-18.75 23-27 16.75-36.25 6.5q-23.5 0-42.25-7.75t-31.75-21.25-20-31.5-7-38.5q0-16.5 3.75-31.75t11.75-30.5 20.75-31.5 30.25-34.75l203.5-209.5q18 33.5 29 70.5t14.5 74q1 11 7.25 17.25t16.25 6.25h68q-0.5-64-19-123t-53-110l154.5-158.5h-107q-8.5 0-15.5 1t-12.75 3.25-11.25 6.5-11.5 10.75l-61.5 62.5q-48.5-43-110.25-67.5t-134.25-24.5q-42 0-82 14.25t-71.75 41-51.25 65.5-19.5 87.25q0 35 11.5 66.5t32.25 58.25 49 48.5 61.75 36.75q-29 38.5-42.25 75.75t-13.25 74.75q0 38 13.75 71.75t40 59 64 39.75 85.25 14.5zM284.5 216.5q50.5 0 92.25 17t73.75 46.5l-205.5 209q-47-27.5-69.5-64.5t-22.5-80q0-30 11-54t29.25-40.25 42-25 49.25-8.75z" />
<glyph unicode="&#x27;" glyph-name="uni27" horiz-adv-x="213" d="M154 873v-147.5l-9.5-80q-3-19.5-11.25-30.5t-27.25-11q-16.5 0-25.25 11t-12.25 30.5l-9.5 80v147.5h95z" />
<glyph unicode="&#x28;" glyph-name="uni28" horiz-adv-x="278" d="M136.5 457q0-107.5 26.75-210.25t77.25-193.25q4.5-9 5.75-16.25t-1-12.5-6-9-8.25-6.75l-48.5-30q-38.5 59-65.25 117t-43.5 117-24.5 119.75-7.75 124.25q0 63 7.75 123.75t24.5 119.75 43.5 117.5 65.25 117l48.5-30q4.5-3 8.25-6.5t6-9 1-12.75-5.75-16.25q-50.5-91-77.25-193.5t-26.75-210z" />
<glyph unicode="&#x29;" glyph-name="uni29" horiz-adv-x="278" d="M140.5 457q0 107.5-26.75 210t-76.75 193.5q-4.5 9-5.75 16.25t0.75 12.75 5.75 9 8.25 6.5l49 30q38-59 64.75-117.25t43.5-117.25 24.5-119.75 7.75-123.75q0-63.5-7.75-124.25t-24.5-119.75-43.5-117.25-64.75-116.75l-49 30q-4.5 3-8.25 6.75t-5.75 9-0.75 12.5 5.75 16.25q50 90.5 76.75 193.25t26.75 210.25z" />
<glyph unicode="&#x2a;" glyph-name="uni2A" horiz-adv-x="435" d="M191 569.5v97q0 10 1.25 19.25t4.75 18.25q-11-13-28.5-23.5l-84.5-49-26 45.5 84 49q18.5 11.5 35.5 13-9 1-18 5t-17.5 9.5l-84.5 49 26 45.5 85-49q8.5-5.5 16-11.5t13-13q-4 8.5-5.25 17.75t-1.25 19.75v97h53v-96.5q0-20.5-6-37.5 5.5 7 12.75 12.75t16.25 11.25l84 48.5 26.5-45.5-84-48.5q-8.5-5.5-17.25-9.25t-17.75-5.25q16.5-2 35-13l84.5-49.5-26.5-45.5-84.5 49.5q-8.5 5-16.25 10.75t-13.25 13.25q6.5-16.5 6.5-37v-98h-53z" />
<glyph unicode="&#x2b;" glyph-name="uni2B" horiz-adv-x="594" d="M341.5 734.5v-214h203.5v-83h-203.5v-214.5h-89.5v214.5h-202.5v83h202.5v214h89.5z" />
<glyph unicode="&#x2c;" glyph-name="uni2C" horiz-adv-x="236" d="M49 206.5q0 13.5 5 25.25t14 20.5 21.5 13.5 27 4.75q17.5 0 31-6.25t22.25-17.25 13.25-25.75 4.5-30.75q0-23.5-7-49.75t-20.5-52-33.25-50.5-44.75-45.25l-19 17.5q-4 4-5.75 7.75t-1.75 9.25q0 8.5 8.5 16.5 5 6 13 15t16.25 21 15.25 26 10.5 30h-3q-15 0-27 5.5t-21 14.75-14 22-5 28.25z" />
<glyph unicode="&#x2e;" glyph-name="uni2E" horiz-adv-x="242" d="M50 199q0 15 5.5 28t15 22.75 22.5 15.25 28 5.5 28-5.5 22.5-15.25 15.25-22.75 5.75-28q0-15.5-5.75-28.25t-15.25-22.5-22.75-15-27.75-5.25q-15 0-28 5.25t-22.5 15-15 22.5-5.5 28.25z" />
<glyph unicode="&#x2f;" glyph-name="uni2F" horiz-adv-x="471" d="M137 130q-7.5-21-24.5-31.5t-34-10.5h-47l303.5 766q7 19 22 29.25t34.5 10.25h47z" />
<glyph unicode="&#x30;" glyph-name="uni30" horiz-adv-x="594" d="M566 504q0-97-20.75-167.5t-57.25-117-85.5-69-106-22.5-106 22.5-85.25 69-56.75 117.25-20.5 167.25q0 97 20.5 167.75t56.75 117.25 85.25 69.25 106 22.75 106-22.75 85.5-69.25 57.25-117.25 20.75-167.75zM452 504q0 82-13 136.5t-34.5 87.25-49.75 46.75-58.25 14q-30.5 0-58.5-14t-49.5-46.75-34.25-87.25-12.75-136.5 12.75-136.5 34.25-87.25 49.25-46.5 58.75-13.75q30 0 58.25 13.75t49.75 46.5 34.5 87.25 13 136.5z" />
<glyph unicode="&#x31;" glyph-name="uni31" horiz-adv-x="594" d="M124 219h153.5v462q0 24 1.5 50l-118-100q-7.5-6-15.75-7.75t-15-0.25-12.25 4.75-8.5 7.25l-34 48.5 222 191h89.5v-655.5h139v-83.5h-402v83.5z" />
<glyph unicode="&#x32;" glyph-name="uni32" horiz-adv-x="594" d="M303.5 881q49 0 90.25-14.5t71.25-41.5 47-65.5 17-86.5q0-41-12-75.75t-32.5-66.5-48-61.75-57.5-60.5l-178.5-182.5q22 5.5 44.5 9.5t42 4h217q18 0 28-10.5t10-27v-66.5h-498.5v37.5q0 11.5 4.5 23.5t15 22.5l229.5 230q29 29 51.75 55.75t39 53.25 24.75 54 8.5 57.5q0 29-9 51.25t-24.75 37-37.5 22.25-47.75 7.5q-25 0-46.25-7.25t-38-20-27.75-30.5-16-38.75q-7.5-21-19.75-28.25t-35.25-2.75l-57.5 10q7.5 52 28.75 91.5t53.5 66 74 40 90.25 13.5z" />
<glyph unicode="&#x33;" glyph-name="uni33" horiz-adv-x="594" d="M307 881q49 0 89.25-14t69.25-39.25 44.75-60 15.75-76.25q0-70-32.5-109.75t-89.5-57.75q137.5-40.5 137.5-173 0-53-19.75-94.5t-54-70.25-79.5-43.75-95.75-15q-57 0-98.5 13.5t-71.5 38.75-50 61.25-33.5 80.5l47.5 20q19 8 36.25 4.5t24.75-19q8-16.5 18.25-35.25t26.5-34.25 40-26 58.75-10.5q35.5 0 61.75 11.5t43.75 29.75 26.25 40.75 8.75 44.5q0 27.5-6.5 50.75t-25.75 39.75-54.25 26-92 9.5v79.5q46.5 0.5 78.5 9.25t51.25 24.5 27.75 37.75 8.5 48q0 28-8.75 49.75t-24.5 36.25-37.25 21.75-47.5 7.25q-25 0-46.25-7.25t-38-20-28-30.5-16.25-38.75q-7-21-19-28.25t-35-2.75l-58 10q7.5 52 28.75 91.5t53.5 66 74 40 90.25 13.5z" />
<glyph unicode="&#x34;" glyph-name="uni34" horiz-adv-x="594" d="M465 408h102v-63.5q0-9-6-15.75t-18-6.75h-78v-186.5h-96v186.5h-319q-12 0-20.25 6.75t-10.75 17.25l-11.5 56.5 354 471h103.5v-465.5zM369 677q0 15.5 1 33.5t4 37.5l-248-340h243v269z" />
<glyph unicode="&#x35;" glyph-name="uni35" horiz-adv-x="594" d="M507.5 825q0-23.5-15-38.25t-49.5-14.75h-216l-30-171.5q52.5 11 98 10.5 58 0 102.25-17t74-47.25 45-71 15.25-88.25q0-59-20.5-107t-56.75-82.25-85.75-52.5-107-18.25q-34 0-64.25 6.5t-57 18-49.25 26.75-40.5 31.75l34 47q11 15.5 28.5 15 11.5 0 24.75-8t31-17.5 41.75-17.75 57.5-8.25q36.5 0 65 11.75t48.25 33 30 51 10.25 65.25q0 32.5-9.5 57.75t-28.25 43.25-47 27.5-64.75 9.5q-27 0-55.5-4.5t-58-14.5l-68.5 19.5 60.5 352.5h357v-48z" />
<glyph unicode="&#x36;" glyph-name="uni36" horiz-adv-x="594" d="M255.5 601.5q-8-10-15.5-19.75t-14.5-18.75q23.5 14 51.25 21.5t60.75 7.5q43 0 82.5-14t69.25-42 47.75-69 18-95q0-51-18.75-95.5t-52.5-77.75-81-52.25-104.75-19-103.5 18.25-78.5 51.75-50 80.75-17.5 105.25q0 50 21.5 104.75t66.5 115.25l181.5 243q8 11 23.75 18.75t35.25 7.75h97zM154.5 365.5q0-33 9.25-60t27.25-46.25 44.25-30 60.75-10.75q33.5 0 61 11t47.25 30.5 30.5 46 10.75 58q0 34-10.5 60.75t-29.75 45.25-46 28.25-59.25 9.75q-33.5 0-60.25-11.25t-45.75-30.5-29.25-45.5-10.25-55.25z" />
<glyph unicode="&#x37;" glyph-name="uni37" horiz-adv-x="594" d="M556.5 873v-49q0-21.5-4.5-34.75t-9.5-22.25l-291-593q-7.5-16.5-21.75-27.5t-37.25-11h-79.5l297 583q8 16 16.25 28.75t18.75 24.75h-368q-10 0-18 8t-8 18v75h505.5z" />
<glyph unicode="&#x38;" glyph-name="uni38" horiz-adv-x="594" d="M297 127.5q-56.5 0-102.75 15t-79.5 42.75-51.75 67-18.5 88.25q0 67.5 34 113t102 66.5q-55.5 22-83.25 64t-27.75 101q0 41.5 16.5 77.25t46.5 62.25 72 41.5 92.5 15 92.25-15 71.75-41.5 46.75-62.25 16.75-77.25q0-59-28-101t-83.5-64q67.5-21 102-66.5t34.5-113q0-48.5-18.5-88t-51.75-67.25-79.5-42.75-102.75-15zM297 214.5q33.5 0 59.5 9.5t43.75 26.5 26.75 40.5 9 51.5q0 34-10.5 58.5t-29 40.5-44.25 24-55.25 8-55.25-8-44.5-24-29.25-40.75-10.5-58.25q0-27.5 9.25-51.25t27-40.75 43.75-26.5 59.5-9.5zM297 561q33.5 0 56.5 10.25t37 27.5 20.5 39.25 6.5 45-7.5 43.75-22.75 36-37.75 24.5-52.5 9.25-53-9.25-37.75-24.5-22.25-36-7.5-43.75 6.5-45 20.5-39.25 37-27.5 56.5-10.25z" />
<glyph unicode="&#x39;" glyph-name="uni39" horiz-adv-x="594" d="M346.5 425q10 13 19 24.25t17 23.25q-27-19.5-59.75-29.25t-69.75-9.75q-40 0-76.75 13.5t-65.5 40.5-46 66.5-17.25 91.5q0 48.5 18.25 91.5t51 75 78.25 50.5 101 18.5q55 0 99.5-17.75t75.75-49.75 48-76.25 16.75-97.25q0-33.5-5.75-63.25t-16.75-57.5-26.75-54.75-35.25-54.5l-173.5-249q-7.5-11.5-22.75-18.5t-34.25-7h-100.5zM430.5 652q0 32.5-10 57.75t-28 43.25-43.25 27.5-54.75 9.5q-31 0-56.25-10.25t-43.25-28.5-27.75-43-9.75-54.75q0-65.5 35.25-100.5t98.25-35q34 0 59.75 10.75t43.5 29 27 42.5 9.25 51.75z" />
<glyph unicode="&#x3a;" glyph-name="uni3A" horiz-adv-x="260" d="M58.5 199q0 15 5.5 28t15 22.75 22.5 15.25 28 5.5 28-5.5 22.5-15.25 15.25-22.75 5.75-28q0-15.5-5.75-28.25t-15.25-22.5-22.75-15-27.75-5.25q-15 0-28 5.25t-22.5 15-15 22.5-5.5 28.25zM58.5 572q0 15 5.5 28t15 22.75 22.5 15.25 28 5.5 28-5.5 22.5-15.25 15.25-22.75 5.75-28q0-15.5-5.75-28.25t-15.25-22.5-22.75-15-27.75-5.25q-15 0-28 5.25t-22.5 15-15 22.5-5.5 28.25z" />
<glyph unicode="&#x3b;" glyph-name="uni3B" horiz-adv-x="273" d="M67.5 206.5q0 13.5 5 25.25t14 20.5 21.5 13.5 27 4.75q17.5 0 31-6.25t22.25-17.25 13.25-25.75 4.5-30.75q0-23.5-7-49.75t-20.5-52-33.25-50.5-44.75-45.25l-19 17.5q-4 4-5.75 7.75t-1.75 9.25q0 8.5 8.5 16.5 5 6 13 15t16.25 21 15.25 26 10.5 30h-3q-15 0-27 5.5t-21 14.75-14 22-5 28.25zM64.5 572q0 15 5.5 28t15 22.75 22.5 15.25 28 5.5 28-5.5 22.5-15.25 15.25-22.75 5.75-28q0-15.5-5.75-28.25t-15.25-22.5-22.75-15-27.75-5.25q-15 0-28 5.25t-22.5 15-15 22.5-5.5 28.25z" />
<glyph unicode="&#x3c;" glyph-name="uni3C" horiz-adv-x="594" d="M80 503l401.5 209v-79.5q0-9-4.75-16.75t-15.75-13.25l-207-105q-11.5-5.5-23.75-9.75t-25.25-7.75q13.5-3 25.5-7.25t23.5-10.25l207-104.5q11.5-5.5 16-13.25t4.5-17.25v-79l-401.5 209v45.5z" />
<glyph unicode="&#x3d;" glyph-name="uni3D" horiz-adv-x="594" d="M73 433.5h447.5v-83.5h-447.5v83.5zM73 609.5h447.5v-83h-447.5v83z" />
<glyph unicode="&#x3e;" glyph-name="uni3E" horiz-adv-x="594" d="M514 457.5l-401.5-209v79q0 9.5 4.75 17.25t15.75 13.25l207 104.5q11 5.5 23.25 10t25.75 7.5q-14 3.5-26.25 7.75t-22.75 9.75l-207 105q-11.5 5.5-16 13.25t-4.5 16.75v79.5l401.5-209v-45.5z" />
<glyph unicode="&#x3f;" glyph-name="uni3F" horiz-adv-x="465" d="M39 806.5q17 15.5 36.75 28.75t43.25 23.5 50.75 16.25 59.25 6q42.5 0 78-12t61.25-34.25 40.25-53.75 14.5-70.5-11.25-67.5-28.75-49.5-38-36.5-38.5-29-31.25-27.25-15.75-29.75l-10.5-77h-75l-7.5 84.5q-2.5 24 7.75 41.5t27.25 32.75 37.75 29.5 38.75 31.5 30.25 38.75 12.25 52q0 20-7.75 36t-21.5 27.25-32.25 17.5-40 6.25q-30 0-51-7.25t-36-15.75-24.5-15.25-16.5-6.75q-16 0-23.5 13.5zM137 199q0 15 5.5 28t15 22.75 22.5 15.25 28 5.5 28-5.5 22.75-15.25 15.25-22.75 5.5-28q0-15.5-5.5-28.25t-15.25-22.5-23-15-27.75-5.25q-15 0-28 5.25t-22.5 15-15 22.5-5.5 28.25z" />
<glyph unicode="&#x40;" glyph-name="uni40" horiz-adv-x="860" d="M608.5 230q-37.5 0-64 17.5t-35 56q-30-38.5-64.25-55.5t-74.25-17q-31 0-54.25 11.25t-38.75 30.25-23 45.5-7.5 57q0 29 7.25 58.75t22 57.5 37 52 51.75 42.25 66.25 28.5 80.75 10.5q37 0 64-5.75t51.5-16.25l-48-188q-9-35.5-9-58t6.75-35 19.25-17.25 27-4.75q23 0 44 13.75t36.75 38.75 25 60.25 9.25 77.25q0 68.5-21.75 120.25t-60.25 86.5-91.25 52.25-114.75 17.5q-67.5 0-126.25-25.75t-102-70.75-68-106.5-24.75-132.5q0-85.5 26.75-150t73-108 109.25-65.5 135-22q79 0 137.25 16.25t98.25 39.75q12 7 21.25 4.25t13.25-13.25l15.5-40.5q-54.5-36-125-57.5t-160.5-21.5q-90.5 0-168.25 28.75t-134.75 82.5-89.25 131.25-32.25 175.5q0 55.5 14.25 106.75t40 96.5 62 83 81 64.75 96.5 41.75 107.75 14.75q47.5 0 93.5-10.5t86.5-31 75-50.75 59.25-68.75 38.5-85.75 13.75-101.75q0-55-15.75-102.25t-44-82.25-66.5-55-82.75-20zM393 303q14.5 0 29.25 4.5t28.5 16 25.25 31 19 49l38 147q-17.5 3.5-38.5 4-35 0-64.5-15t-51.25-39.5-34-56.5-12.25-66q0-35 15.5-54.75t45-19.75z" />
<glyph unicode="&#x41;" glyph-name="uni41" horiz-adv-x="703" d="M704.5 135.5h-92.5q-16 0-25.75 8t-14.75 19.5l-61.5 163h-317.5l-61.5-163q-4-10-14.25-18.75t-25.75-8.75h-92.5l292.5 737.5h121zM225 412h252.5l-101 269.5q-6 15-12.5 35.25t-13 43.75q-6-24-12.25-44.25t-12.25-35.25z" />
<glyph unicode="&#x42;" glyph-name="uni42" horiz-adv-x="669" d="M87.5 135.5v737.5h245.5q70.5 0 120.75-13.75t82.5-38.75 47.25-61 15-81.5q0-26-8-50.5t-24.5-45.5-41.75-38.25-59.25-28.25q78.5-16.5 117.5-58t39-108q0-47-17.75-86.25t-51.25-67.75-82.5-44.25-112-15.75h-270.5zM207.5 464v-234h148.5q40.5 0 68.25 9.5t45.5 26 25.75 38.75 8 47.75q0 52-35.75 82t-112.25 30h-148zM207.5 548.5h119.5q77 0 114.75 29.75t37.75 85.75q0 61-35.5 88t-111 27h-125.5v-230.5z" />
<glyph unicode="&#x43;" glyph-name="uni43" horiz-adv-x="680" d="M599.5 300q9.5 0 17-8l47.5-51.5q-45-54.5-110.5-83.75t-156.5-29.25q-81 0-146.25 27.75t-111.5 77.75-71 119-24.75 152 26.5 152.5 74.25 119.25 114.5 77.5 147.25 27.75q80 0 141.25-25.75t106.25-68.75l-39.5-56q-4-5.5-9.75-9.75t-15.25-4.25q-10 0-23.25 9.5t-33.5 21-50.75 21-76 9.5q-52.5 0-96.75-18.5t-76-53.75-49.25-86-17.5-115.25q0-65 18.5-116t50.75-86 75.75-53.5 93.5-18.5q30.5 0 55 3.5t45 10.75 38.5 18.75 36 27.5q10.5 9.5 20.5 9.5z" />
<glyph unicode="&#x44;" glyph-name="uni44" horiz-adv-x="779" d="M734.5 504q0-82-26.5-149.75t-75-116.25-116.25-75.5-150.75-27h-278.5v737.5h278.5q83 0 150.75-27t116.25-75.75 75-116.5 26.5-149.75zM612.5 504q0 63.5-17.25 114.25t-49.25 85.5-77.5 53.5-102.5 18.75h-158v-543.5h158q57 0 102.5 18.25t77.5 53.5 49.25 85.5 17.25 114.25z" />
<glyph unicode="&#x45;" glyph-name="uni45" horiz-adv-x="590" d="M547.5 873v-97h-339.5v-222h271v-94h-271v-227.5h340l-0.5-97h-460v737.5h460z" />
<glyph unicode="&#x46;" glyph-name="uni46" horiz-adv-x="579" d="M547.5 873v-97h-339.5v-236h288v-97h-288v-307.5h-120.5v737.5h460z" />
<glyph unicode="&#x47;" glyph-name="uni47" horiz-adv-x="745" d="M691 206.5q-110-79.5-256-79-89.5 0-162 27.75t-123.5 77.75-78.75 119-27.75 152q0 83.5 26.75 153t76.25 119.25 119.75 77.25 157.75 27.5q44.5 0 82.75-7t71-19.25 60.25-29.5 50.5-38.75l-34-55q-8-13-21-16t-28 6q-15 8.5-31.5 18.5t-38 18.5-49.75 13.75-66.25 5.25q-58.5 0-105.25-19.25t-80.25-54.75-51.25-86.25-17.75-113.25q0-66 19-118t53.75-88 84-55 110.25-19q45.5 0 81.25 9.75t69.75 27.25v146.5h-102.5q-12 0-18.75 6.25t-6.75 16.75v68h236v-292z" />
<glyph unicode="&#x48;" glyph-name="uni48" horiz-adv-x="786" d="M698 135.5h-120v328h-370v-328h-120.5v737.5h120.5v-323h370v323h120v-737.5z" />
<glyph unicode="&#x49;" glyph-name="uni49" horiz-adv-x="295" d="M208 135.5h-120.5v737.5h120.5v-737.5z" />
<glyph unicode="&#x4a;" glyph-name="uni4A" horiz-adv-x="436" d="M356 394.5q0-62-15.25-111.25t-45.25-84-74.25-53.25-102.25-18.5q-26.5 0-52.75 3.25t-54.25 10.25l6 72q1.5 10 8 16.25t18.5 6.25q9 0 23.75-4t38.25-4q31 0 55.5 9.25t41 29 25 50.75 8.5 75v481.5h119.5v-478.5z" />
<glyph unicode="&#x4b;" glyph-name="uni4B" horiz-adv-x="691" d="M207.5 557.5h34q19.5 0 31.75 5.25t22.25 17.25l223 266q12 15 24.5 21t31.5 6h102.5l-264-311.5q-11-13.5-20.75-22.25t-21.75-14.75q15.5-5.5 27.75-15.5t24.25-26.5l273.5-347h-104.5q-11.5 0-19.5 1.5t-13.75 4.5-10.25 7.75-8 10.25l-230 281.5q-5 6.5-10.25 11.25t-12.25 7.75-15.75 4.25-20.25 1.25h-44v-330h-120v737.5h120v-315.5z" />
<glyph unicode="&#x4c;" glyph-name="uni4C" horiz-adv-x="529" d="M207.5 236h306v-100.5h-426v737.5h120v-637z" />
<glyph unicode="&#x4d;" glyph-name="uni4D" horiz-adv-x="959" d="M454 424.5q7-15 14.25-30.75t13.25-31.75q6 16.5 12.75 32.5t14.75 31l233 427.5q7 14.5 15.75 17.25t24.75 2.75h89.5v-737.5h-105.5v505.5q0 12.5 0.75 26.75t1.75 28.75l-236.5-437q-14-27-42.5-27h-17q-29 0-42.5 27l-241 438.5q1.5-15.5 2.5-30t1-27v-505.5h-105.5v737.5h89.5q16 0 24.75-3t15.75-17l236.5-428.5z" />
<glyph unicode="&#x4e;" glyph-name="uni4E" horiz-adv-x="786" d="M150 873q7.5 0 13-1t10-3 8.75-6 8.75-10l405.5-521q-1.5 16-2.25 31.25t-0.75 28.75v481h105v-737.5h-61q-14 0-23.75 4.75t-18.25 16.25l-405 520q1.5-15 2.25-29.5t0.75-26.5v-485h-105.5v737.5h62.5z" />
<glyph unicode="&#x4f;" glyph-name="uni4F" horiz-adv-x="824" d="M780.5 504q0-82-26.75-151t-75-119-116.25-78-151-28q-82.5 0-150.25 28t-116.25 78-75.25 119-26.75 151 26.75 151.25 75.25 119.25 116.25 78.25 150.25 28.25q83 0 151-28.25t116.25-78.25 75-119.25 26.75-151.25zM658 504q0 63.5-17.25 114.25t-49.25 86-77.5 54.25-102.5 19q-56.5 0-102-19t-77.75-54.25-49.5-86-17.25-114.25q0-64 17.25-114.5t49.5-85.75 78-54 101.75-18.75q57 0 102.5 18.75t77.5 54 49.25 85.75 17.25 114.5z" />
<glyph unicode="&#x50;" glyph-name="uni50" horiz-adv-x="625" d="M207.5 402.5v-267h-120v737.5h229.5q72 0 125-17t87.5-47.5 51.5-73.25 17-94.25q0-52.5-18-96.5t-53.25-75.5-87.75-49-122-17.5h-109.5zM207.5 497h109.5q40 0 70.5 10.25t50.5 29 30.25 45.25 10.25 59.5q0 32.5-9.75 58t-29.75 43.25-50.5 27.25-71.5 9.5h-109.5v-282z" />
<glyph unicode="&#x51;" glyph-name="uni51" horiz-adv-x="824" d="M781 504q0-50.5-10.25-96.25t-29.75-85.75-47.75-72.75-64.25-57.25l188-204h-98q-22 0-39 6t-31.5 21l-118 129.5q-27.5-8-57-12.25t-61.5-4.25q-82.5 0-150.25 28t-116.25 78-75.25 119-26.75 151 26.75 151.25 75.25 119.25 116.25 78.25 150.25 28.25q83 0 151-28.25t116.25-78.25 75-119.25 26.75-151.25zM658.5 504q0 63.5-17.25 114.25t-49.25 86-77.5 54.25-102.5 19q-56.5 0-102-19t-77.75-54.25-49.5-86-17.25-114.25q0-64 17.25-114.5t49.5-85.75 78-54 101.75-18.75q57 0 102.5 18.75t77.5 54 49.25 85.75 17.25 114.5z" />
<glyph unicode="&#x52;" glyph-name="uni52" horiz-adv-x="650" d="M207.5 432.5v-297h-120v737.5h217q72.5 0 125.25-15t86.5-42.25 49.75-65.75 16-85.5q0-38.5-11.5-71.75t-33.25-60.5-53.75-47.25-72.5-31q22.5-13.5 38.5-37.5l199-281h-107q-31.5 0-46 24.5l-172 248.5q-8.5 13-18.75 18.5t-30.75 5.5h-66.5zM207.5 519.5h94q41 0 71.75 10t51.25 28 30.75 42.75 10.25 54.75q0 60.5-40 92.25t-121 31.75h-97v-259.5z" />
<glyph unicode="&#x53;" glyph-name="uni53" horiz-adv-x="559" d="M473 747q-5.5-9-11.75-13.5t-15.25-4.5q-9.5 0-21.75 8.25t-29.75 18.25-41.75 18.25-57.25 8.25q-30.5 0-54-7.5t-39.25-21.5-23.75-32.5-8-40.5q0-28 14.75-47t39.25-32.25 55.75-23.25 63.75-21.25 63.75-25.5 55.5-36.25 39-53.75 14.75-77.25q0-49-16.75-92.25t-48.75-75.25-79-50.25-107-18.25q-35.5 0-68.75 6.75t-63.75 19.25-57.25 30.5-47.75 40l35 57.5q4.5 7 11.75 11.25t15.75 4.25q12 0 26.25-11t34.5-24.25 49-24.25 68.75-11q65 0 100.5 31.75t35.5 87.75q0 31-14.75 50.75t-39.25 33-55.75 22.5-63.5 19.75-63.5 24.75-55.5 37-39 56.25-14.75 83.5q0 40 15.5 77.5t45.5 66.25 74 46.25 100.5 17.5q63.5 0 116.5-20t91.5-57z" />
<glyph unicode="&#x54;" glyph-name="uni54" horiz-adv-x="610" d="M595 873v-100h-230v-637.5h-119v637.5h-230.5v100h579.5z" />
<glyph unicode="&#x55;" glyph-name="uni55" horiz-adv-x="757" d="M378.5 232.5q42.5 0 76 14.25t56.75 39.75 35.5 61.75 12.25 80.25v444.5h119.5v-444.5q0-65-20.75-120.5t-59.75-95.5-94.5-62.75-125-22.75-125.25 22.75-94.5 62.75-59.5 95.5-20.75 120.5v444.5h119.5v-444q0-44 12.25-80.25t35.5-62 56.75-40 76-14.25z" />
<glyph unicode="&#x56;" glyph-name="uni56" horiz-adv-x="703" d="M-1.5 873h95.5q16 0 25.75-8t14.75-20l190-480.5q7-20 14.5-43.5t14-50q5.5 26 11.75 49.75t14.25 43.75l189.5 480.5q4 10 14.25 19t25.75 9h96l-299-737.5h-108z" />
<glyph unicode="&#x57;" glyph-name="uni57" horiz-adv-x="1069" d="M12 873h100q15.5 0 26-7.5t14-20.5l138.5-472.5q4-15.5 7.25-33t6.75-37q4 19.5 8.5 37.25t9.5 32.75l158.5 472.5q3.5 10 14.25 19t25.25 9h35q16 0 25.75-8t14.75-20l157.5-472.5q5-15 9.25-32t8.25-36.5q3.5 19 7 36.25t7.5 32.25l137.5 472.5q3 11.5 14 19.75t26 8.25h94l-229.5-737.5h-108l-173 529.5q-3 8.5-6 18.75t-5.5 22.25q-2.5-12-5.5-22.25t-5.5-18.75l-175-529.5h-108z" />
<glyph unicode="&#x58;" glyph-name="uni58" horiz-adv-x="676" d="M254.5 514l-238.5 359h118.5q13 0 18.75-4t10.75-11.5l179-282q2 6.5 4.75 12.75t7.25 12.75l166.5 254.5q5 8.5 11.25 13t15.25 4.5h114l-240.5-353.5 248-384h-119q-12.5 0-20 6.75t-12.5 14.75l-183 295.5q-2-6-4.5-11.75t-5.5-10.75l-177-273q-5.5-8-12.5-14.75t-18.5-6.75h-111.5z" />
<glyph unicode="&#x59;" glyph-name="uni59" horiz-adv-x="652" d="M385.5 424.5v-289h-119.5v289l-269 448.5h105q16 0 25-7.75t15.5-19.75l151-264q10-20 18.5-38t14.5-35.5q6 18 14.25 35.75t18.75 37.75l150 264q5 10 14.75 18.75t25.25 8.75h105.5z" />
<glyph unicode="&#x5a;" glyph-name="uni5A" horiz-adv-x="618" d="M588.5 873v-45q0-10-3.5-19.75t-9-18.25l-396-557.5h400.5v-97h-557v47q0 9.5 3 18t8.5 16.5l396.5 559h-386v97h543z" />
<glyph unicode="&#x5b;" glyph-name="uni5B" horiz-adv-x="317" d="M88.5-18v942.5h200v-43.5q0-12-8.25-20.25t-21.75-8.25h-78v-798h78q13.5 0 21.75-8.75t8.25-20.25v-43.5h-200z" />
<glyph unicode="&#x5c;" glyph-name="uni5C" horiz-adv-x="471" d="M31.5 893.5h47.5q19.5 0 34.25-10.25t21.75-29.25l303.5-766h-46.5q-18 0-34.75 10.5t-24.25 31.5z" />
<glyph unicode="&#x5d;" glyph-name="uni5D" horiz-adv-x="317" d="M29 25.5q0 12 8.25 20.5t21.75 8.5h77.5v798h-77.5q-13.5 0-21.75 8.25t-8.25 20.25v43.5h200v-942.5h-200v43.5z" />
<glyph unicode="&#x5e;" glyph-name="uni5E" horiz-adv-x="594" d="M535 488h-80q-10 0-17.25 5.25t-11.25 13.75l-107.5 210q-7 15-12.75 29t-9.75 27.5q-4-13.5-9.25-27.5t-11.75-29l-102.5-210q-3.5-8.5-11-13.75t-19-5.25h-84l200.5 385h71.5z" />
<glyph unicode="&#x5f;" glyph-name="uni5F" horiz-adv-x="474" d="M439 59.5v-72.5h-403.5v72.5h403.5z" />
<glyph unicode="&#x60;" glyph-name="uni60" d="M156.5 881q19 0 28.25-6.25t16.25-18.75l75-124h-62.5q-13 0-20.75 3.5t-16.25 13l-123.5 132.5h103.5z" />
<glyph unicode="&#x61;" glyph-name="uni61" horiz-adv-x="515" d="M404 135.5q-16 0-24.25 4.75t-13.75 19.75l-10.5 42.5q-20-18.5-39.5-32.25t-40.25-23.5-44.5-14.5-52.75-4.75q-31.5 0-59 8.5t-47.5 26.25-31.5 44-11.5 61.25q0 30 16.25 58.75t53.25 51.5 97.75 37.75 149.75 17v35q0 56.5-24 84t-70.5 27.5q-31.5 0-53.25-8t-37.5-17.25-28-17.25-26.25-8q-11.5 0-19.25 6t-13.25 14.5l-19.5 36q88.5 82.5 210.5 82.5 45 0 80.25-14.5t59-41.25 36.25-63.25 12.5-81v-332h-49zM212 204q43 0 74 16.25t60 46.25v97.5q-59-2.5-99.25-9.75t-65.5-19-36.25-27.5-11-34.75q0-18.5 6-31.5t16.5-21.25 24.5-12.25 31-4z" />
<glyph unicode="&#x62;" glyph-name="uni62" horiz-adv-x="578" d="M67 135.5v758h110v-305q32.5 35.5 72.5 56.5t91 21q45.5 0 82.25-17.75t62.25-51 39.25-80.5 13.75-106.75q0-63.5-15.5-115.5t-44.75-89-70.75-57.25-92.5-20.25q-25 0-45.5 4.75t-38 13.75-32 22-28 29.5l-4.5-40.5q-2.5-12-9.25-17t-18.25-5h-72zM303.5 579q-40.5 0-70.25-18.25t-56.25-52.25v-242q23-29.5 50.5-41.5t59.5-12q65 0 101.5 47t36.5 146q0 90-31.5 131.5t-90 41.5z" />
<glyph unicode="&#x63;" glyph-name="uni63" horiz-adv-x="492" d="M436 555.5q-5-6.5-9.5-10.25t-13.5-3.75q-8.5 0-18 6.25t-22.5 13.5-31.5 13.5-46 6.25q-36 0-62.75-12.75t-45-36.75-27.25-58-9-76.5q0-44 9.75-78.25t28-57.75 44-35.75 58.25-12.25q31.5 0 51.5 7.5t33.25 16.75 22.75 17 20.5 7.75q13.5 0 20.5-10.5l31-40q-19-23-42-39t-48.5-26-53.25-14.25-55.75-4.25q-48.5 0-91 18t-73.75 52.75-49.5 84.5-18.25 113.75q0 58 16.25 107.5t47.75 85.25 78.25 56 107.75 20.25q57 0 100-18.5t77-52z" />
<glyph unicode="&#x64;" glyph-name="uni64" horiz-adv-x="578" d="M444 135.5q-22 0-28.5 21l-9.5 56.5q-16.5-19-34.75-34.75t-39.5-27-45.5-17.25-51.75-6q-44 0-79.75 17.5t-61.5 51.25-39.75 83.75-14 114.5q0 58.5 15.5 108.25t44.75 86.25 71 57.25 93.25 20.75q46 0 78.5-14.5t58-41v281.5h110v-758h-66.5zM271.5 216.5q42 0 72.25 17.75t56.75 51.75v243q-23.5 29-51 41.25t-59.5 12.25q-64.5 0-101-47.25t-36.5-140.25q0-48 8.25-82t23.5-55.5 37.5-31.25 49.75-9.75z" />
<glyph unicode="&#x65;" glyph-name="uni65" horiz-adv-x="544" d="M285.5 666q48 0 89-15.75t70.75-45.75 46.5-74 16.75-99.5q0-25.5-5.75-34.25t-20.25-8.75h-335.5q2-44.5 13.75-77t31.5-54 47.25-32 61-10.5q32.5 0 56 7.25t40.75 16.25 29.75 16.5 22.5 7.5q13.5 0 20.5-10.5l31-40q-19.5-23-44-39t-52-26-56.75-14.25-56.75-4.25q-54.5 0-100.75 18t-80.25 53.5-53.25 87.75-19.25 120.25q0 54.5 17 101.5t49 81.75 77.75 55 103.75 20.25zM287.5 586q-60 0-94.25-34.25t-43.25-96.25h259.5q0 27.5-8 51.5t-23.25 41.5-38.25 27.5-52.5 10z" />
<glyph unicode="&#x66;" glyph-name="uni66" horiz-adv-x="363" d="M102.5 135.5v434.5l-51.5 7.5q-13 2.5-20.75 9t-7.75 19v45h80v44q0 44.5 13 80t37.25 60 59.25 37.5 78.5 13q18 0 34-2.5t31.5-7.5l-2-55.5q-1-14-13.75-16.5t-31.75-2.5q-23 0-41.25-5.25t-31.5-18.25-20-33.75-6.75-52.25v-40.5h142.5v-79.5h-139v-435.5h-110z" />
<glyph unicode="&#x67;" glyph-name="uni67" horiz-adv-x="537" d="M253.5 667q34 0 63.25-7.5t53.75-20.5h146.5v-41q0-20.5-24.5-25.5l-52-8.5q13.5-30.5 13-66 0-38.5-15-69.75t-41.75-53.25-63.5-33.75-79.75-11.75q-16.5 0-32 1.75t-30.5 4.75q-15-8.5-22-18.25t-7-19.75q0-17 14.75-25.25t39-11.75 55.5-4.5 63.5-3.75 63.5-8.5 55.5-19.25 39.25-36.75 15-59.75q0-34-17-66.25t-49-57.25-78-40.25-105-15.25q-58.5 0-101.75 11.25t-72 30.5-43 44.25-14.25 52.5q0 37 23.5 63t63 41q-21.5 10-34.5 28t-13 47q0 11.5 4.25 23.75t12.5 24.25 20.75 22.75 29.5 19.25q-39 21.5-61.25 57.5t-22.25 83.5q0 39 15.25 70.25t42.25 53.25 64.25 33.75 81.25 11.75zM406.5 110q0 17-10 27.5t-26.75 16.5-39.75 8.5-48 4.25-51.5 3-51.5 4.75q-24.5-13-39.75-30.75t-15.25-41.75q0-15.5 8-28.75t24.5-22.75 42.5-15.25 62-5.75q72.5 0 109 22.5t36.5 58zM253.5 401q51 0 76.75 26.25t25.75 68.25q0 43-25.75 68t-76.75 25q-50.5 0-76.5-25t-26-68q0-20.5 6.75-38t19.5-30 32-19.5 44.25-7z" />
<glyph unicode="&#x68;" glyph-name="uni68" horiz-adv-x="574" d="M67 135.5v758h110v-297.5q32.5 31.5 70.75 50.75t89.75 19.25q43 0 75.5-14.25t54.75-40.5 33.5-62.75 11.25-80.5v-332.5h-109.5v332.5q0 52.5-24.25 81.75t-74.25 29.25q-37 0-68.25-17t-59.25-46v-380.5h-110z" />
<glyph unicode="&#x69;" glyph-name="uni69" horiz-adv-x="253" d="M182 657.5v-522h-110.5v522h110.5zM200 815.5q0-15-5.75-28.25t-16-23.25-23.75-16-29-6q-15 0-28 6t-22.75 16-15.75 23.25-6 28.25q0 15.5 6 28.75t15.75 23.25 22.75 15.75 28 5.75q15.5 0 29-5.75t23.75-15.75 16-23.25 5.75-28.75z" />
<glyph unicode="&#x6a;" glyph-name="uni6A" horiz-adv-x="253" d="M182 657.5v-549q0-33-8.75-62t-27.75-50.5-49-33.75-72.5-12.25q-18 0-32.25 2.75t-29.25 7.25l4 60q1.5 10 8.5 11.5t26.5 1.5q39 0 54.5 17.25t15.5 58.25v549h110.5zM199.5 815.5q0-15-5.75-28.25t-16-23.25-23.5-16-28.75-6q-15 0-28 6t-23 16-15.75 23.25-5.75 28.25q0 15.5 5.75 28.75t15.75 23.25 23 15.75 28 5.75q15.5 0 28.75-5.75t23.5-15.75 16-23.25 5.75-28.75z" />
<glyph unicode="&#x6b;" glyph-name="uni6B" horiz-adv-x="535" d="M177 893.5v-439.5h23.5q11.5 0 18.75 3t14.75 13l146.5 167.5q7.5 10 16.75 15t23.75 5h99.5l-176-198.5q-15.5-20-33.5-31.5 10-7 17.75-16t14.75-20.5l188-255.5h-98.5q-13.5 0-22.75 4.25t-16.75 16.25l-151 205q-7.5 12-15.25 15t-22.75 3h-27.5v-243.5h-110v758h110z" />
<glyph unicode="&#x6c;" glyph-name="uni6C" horiz-adv-x="248" d="M179 893.5v-758h-110v758h110z" />
<glyph unicode="&#x6d;" glyph-name="uni6D" horiz-adv-x="850" d="M67 135.5v522h66.5q22.5 0 29-21l7-45.5q14.5 16.5 29.75 30t33 23.5 38 15.75 43.75 5.75q25 0 46-7.25t37-20.5 27.75-32.25 19.75-42.5q12 27 29.75 46.5t39.75 31.75 46.75 18.25 50.75 6q42 0 75-13.25t55.75-38.75 34.5-62.25 11.75-83.75v-332.5h-110v332.5q0 55.5-23.75 83.25t-70.75 27.75q-21 0-39.25-7.25t-32.25-21-21.75-34.5-7.75-48.25v-332.5h-110.5v332.5q0 57.5-23 84.25t-67.5 26.75q-30.5 0-56.75-15.75t-48.25-42.75v-385h-110z" />
<glyph unicode="&#x6e;" glyph-name="uni6E" horiz-adv-x="574" d="M67 135.5v522h66.5q22.5 0 29-21l7.5-48.5q16.5 17.5 34.5 31.75t38.5 24.5 44 16 50.5 5.75q43 0 75.5-14.25t54.75-40.5 33.5-62.75 11.25-80.5v-332.5h-109.5v332.5q0 52.5-24.25 81.75t-74.25 29.25q-37 0-68.25-17t-59.25-46v-380.5h-110z" />
<glyph unicode="&#x6f;" glyph-name="uni6F" horiz-adv-x="585" d="M293 666q58 0 104.75-19t79.75-53.75 51-84.5 18-111.75-18-111.5-51-84.75-80-54-104.5-18.75q-58.5 0-105.25 18.75t-80.25 54-51.25 84.75-17.75 111.5 17.75 111.75 51.25 84.5 80.25 53.75 105.25 19zM293 214q70.5 0 105 47.25t34.5 135.25-34.5 136-105 48q-71.5 0-106.5-48t-35-136 35-135.25 106.5-47.25z" />
<glyph unicode="&#x70;" glyph-name="uni70" horiz-adv-x="578" d="M67-38v695.5h66.5q22.5 0 29-21l8.5-54.5q16.5 19 35 34.75t39.75 27 45.5 17.5 51.75 6.25q44 0 80-17.75t61.5-51.5 39.5-83.75 14-114.5q0-58-15.5-107.75t-44.75-86.25-70.75-57.25-93.5-20.75q-46 0-78.25 14.5t-58.25 40.5v-221h-110zM306 579q-42.5 0-72.5-18.25t-56.5-52.25v-242q23-29.5 50.5-41.5t61-12q64.5 0 100.5 47t36 140q0 48-8.25 82.25t-23.5 55.75-37.5 31.25-49.75 9.75z" />
<glyph unicode="&#x71;" glyph-name="uni71" horiz-adv-x="578" d="M510.5 657.5v-695.5h-110v244.5q-32.5-36-72.75-57.25t-93.25-21.25q-44 0-79.75 17.5t-61.5 51.25-39.75 83.75-14 114.5q0 58.5 15.5 108.25t44.75 86.25 71 57.25 93.25 20.75q25 0 46-4.25t38.25-12.75 32.5-20.5 28.25-27.5l6.5 34q6 21 28.5 21h66.5zM271.5 216.5q42 0 72.25 17.75t56.75 51.75v243q-23 29-50.75 41.25t-59.75 12.25q-64.5 0-101-47.25t-36.5-140.25q0-48 8.25-82t23.5-55.5 37.5-31.25 49.75-9.75z" />
<glyph unicode="&#x72;" glyph-name="uni72" horiz-adv-x="378" d="M67 135.5v522h64q17.5 0 24.25-6.25t9.25-22.25l6-68q25 49.5 59.75 78t83.75 28.5q17 0 31.75-3.75t26.25-11.75l-7.5-83q-2-8.5-6.25-11.75t-11.75-3.25-21.75 2.75-30.25 2.75q-23 0-41-6.75t-31.75-19.5-24.5-31.25-20.25-42v-324.5h-110z" />
<glyph unicode="&#x73;" glyph-name="uni73" horiz-adv-x="447" d="M379 563q-4-7-9.25-10.25t-12.75-3.25q-8.5 0-19 5.5t-24.25 12.25-32.5 12-43.75 5.25q-20.5 0-37-4.75t-28-13.75-17.75-21-6.25-26q0-18.5 11.25-30.75t29.75-21.25 42-16.25 48-15.25 48-18.75 42-26.5 29.75-38 11.25-53.75q0-37-13.25-68.25t-38.75-54.25-63.75-35.75-87.25-12.75q-27 0-52.5 4.75t-48.25 13.25-42.5 20.25-35.25 25.75l26 42q4.5 7.5 11.25 11.75t17.25 4.25q11 0 21.25-6.75t24.5-15 34.25-15.25 49.5-7q24.5 0 42.5 6t29.75 16.25 17.25 23.25 5.5 28q0 20-11.25 32.75t-29.75 22-42.5 16.25-48.5 15.25-48.25 19-42.5 27.5-30 40.5-11.25 58.25q0 31 12.5 59.25t37 49.75 60 34 82 12.5q52.5 0 95.75-17t72.25-46z" />
<glyph unicode="&#x74;" glyph-name="uni74" horiz-adv-x="374" d="M234.5 127.5q-65 0-100 36.5t-35 103v304h-57.5q-9 0-15.75 6t-6.75 18v44.5l84.5 12 24 151q2.5 8.5 8.75 14t16.25 5.5h56.5v-171.5h145v-79.5h-145v-296q0-28 13.75-43t36.75-15q13 0 22.25 3.25t15.75 7 11.5 7.25 9.5 3.5q9 0 15-10.5l32.5-53.5q-25.5-22.5-60.25-34.5t-71.75-12z" />
<glyph unicode="&#x75;" glyph-name="uni75" horiz-adv-x="574" d="M172 657.5v-332q0-52.5 24.25-81.75t74.25-29.25q36.5 0 67.75 16.5t59.25 46v380.5h110v-522h-66.5q-22 0-28.5 21l-8 48.5q-33.5-35-73.5-56.25t-93.5-21.25q-43 0-75.75 14.25t-55 40.25-33.5 62.75-11.25 80.75v332h110z" />
<glyph unicode="&#x76;" glyph-name="uni76" horiz-adv-x="535" d="M7.5 657.5h91q13 0 21.25-6.25t10.75-15.25l116-304q7-22 12.5-42.75t10-42.25q4 21 9.5 42t13.5 43l117.5 304q3 9 11.25 15.25t20.25 6.25h86l-210-522h-99.5z" />
<glyph unicode="&#x77;" glyph-name="uni77" horiz-adv-x="814" d="M13 657.5h87q13 0 21.25-6.25t10.75-15.25l87-304q5-21 9-40.75t7-39.25q5 19.5 10.5 39.25t12 40.75l98 306q2.5 9 10.5 15t19 6h48q12 0 20.25-6t10.75-15l95-306q5.5-21 11.25-41t10.25-39.5q6 39 17.5 80.5l88.5 304q3 9 11.25 15.25t20.25 6.25h83l-167.5-522h-87.5q-15.5 0-21.5 20l-104 325q-4 14-7.5 27.5t-6 27.5q-5.5-27.5-14-55.5l-105.5-324.5q-5.5-20-24-20h-83.5z" />
<glyph unicode="&#x78;" glyph-name="uni78" horiz-adv-x="523" d="M188 404.5l-173.5 253h105.5q13 0 18.75-3.75t10.25-11.25l118-185q4 15 14.5 33l100 150q10 17.5 26 17h101l-173.5-248 180.5-274h-105.5q-13 0-20.25 6.75t-11.75 14.75l-120.5 192.5q-4.5-18-12.5-29.5l-109-163q-5.5-8-12.5-14.75t-18-6.75h-98.5z" />
<glyph unicode="&#x79;" glyph-name="uni79" horiz-adv-x="535" d="M242.5-13q-5.5-12-13.5-18.5t-24-6.5h-81.5l96 209-213 486.5h96q14 0 21.25-6.25t10.75-15.25l124.5-296q9-25.5 15.5-51.5 4 13.5 8.25 26.25t9.75 25.75l119 295.5q3.5 9 12 15.25t19 6.25h88z" />
<glyph unicode="&#x7a;" glyph-name="uni7A" horiz-adv-x="467" d="M435 611.5q0-12-3.75-23t-10.75-19l-265-348.5h271v-85.5h-398.5v46q0 7.5 3.75 18.5t10.75 20.5l266 351.5h-265v85.5h391.5v-46z" />
<glyph unicode="&#x7b;" glyph-name="uni7B" horiz-adv-x="311" d="M97.5 348.5q0 32.5-16.25 52.25t-49.75 19.75v65q33.5 0 49.75 20t16.25 52.5q0 24.5-4 49t-8.25 49.25-8.25 49.5-4 50.25q0 37.5 11 68.5t33.5 53.25 56 34.5 79 12.25h27v-49.5q0-12-8.5-17.25t-15.5-5.25h-7q-38 0-58.5-24.25t-20.5-65.75q0-28.5 3.25-54.25t7.25-51 7.25-49.5 3.25-48.75q0-38.5-21.5-67.25t-58-38.75q36.5-9.5 58-38.25t21.5-67.25q0-24.5-3.25-48.75t-7.25-49.5-7.25-51.25-3.25-54.5q0-41.5 20.5-65.25t58.5-23.75h7q7 0 15.5-5.5t8.5-17.5v-49.5h-27q-45.5 0-79 12.25t-56 34.5-33.5 53.25-11 68.5q0 25.5 4 50.25t8.25 49.5 8.25 49.25 4 49z" />
<glyph unicode="&#x7c;" glyph-name="uni7C" horiz-adv-x="262" d="M88.5 924.5h85v-966h-85v966z" />
<glyph unicode="&#x7d;" glyph-name="uni7D" horiz-adv-x="311" d="M213.5 348.5q0-24.5 3.75-49t8.25-49.25 8.25-49.5 3.75-50.25q0-37.5-11-68.5t-33.25-53.25-55.75-34.5-78.5-12.25h-28v49.5q0 12 8.75 17.5t15.75 5.5h7.5q37.5 0 58.25 23.75t20.75 65.25q0 28-3.5 54.25t-7.5 51.5-7.25 49.5-3.25 48.75q0 19 5.5 36t15.75 31 24.75 24 32.5 14.5q-36 10-57.25 38.75t-21.25 67.25q0 24.5 3.25 48.75t7.25 49.5 7.5 51 3.5 54.25q0 41.5-20.75 65.75t-58.25 24.25h-7.5q-6.5 0-15.5 5.25t-9 17.25v49.5h28q45 0 78.5-12.25t55.75-34.5 33.25-53.25 11-68.5q0-25.5-3.75-50.25t-8.25-49.5-8.25-49.25-3.75-49q0-32.5 16.25-52.5t49.25-20v-65q-33.5 0-49.5-19.75t-16-52.25z" />
<glyph unicode="&#x7e;" glyph-name="uni7E" horiz-adv-x="594" d="M386.5 459.5q30.5 0 47.75 19.75t17.75 54.75h88.5q0-37.5-10-68t-28.75-52.25-46.25-33.75-62.5-12q-27 0-52.25 7.75t-48.25 16.75-43.75 16.75-38.25 7.75q-30.5 0-47.75-20t-17.75-54h-88.5q0 37.5 10 67.75t28.75 52 46.25 33.5 62.5 11.75q26.5 0 52-7.5t48.5-16.5 43.75-16.75 38.25-7.75z" />
<glyph unicode="&#xa1;" glyph-name="uniA1" horiz-adv-x="268" d="M82.5-38v275q0 23 1 45.25t3 45 4.75 46.25 6.25 49h74q3.5-25.5 6-49t4.75-46.25 3.25-45 1-45.25v-275h-104zM62 595q0 15.5 5.25 28t14.75 22.25 22.75 15.25 27.75 5.5q15 0 28-5.5t22.75-15.25 15.5-22.5 5.75-27.75-5.75-28-15.5-22.75-22.75-15.5-28-5.75-28 5.75-22.5 15.5-14.75 22.75-5.25 28z" />
<glyph unicode="&#xa2;" glyph-name="uniA2" horiz-adv-x="594" d="M280.5 130.5q-46.5 6-86 26.5t-68 54.5-44.75 80.75-16.25 104.25q0 56.5 17 104.5t49.5 83.75 80.25 57 109.75 23.25l6.5 85.5q1 11 9.25 19.75t21.25 8.75h40.5l-9.5-117.5q41.5-7 74.5-23.75t61-42.25l-28.5-39q-4-6-8.75-9.5t-13.75-3.5q-6.5 0-14.5 3.75t-18.75 9.25-24.75 11.5-33 9.5l-28-365q29.5 2.5 49.25 10t33.5 15.75 23.75 14.75 19.5 6.5q14 0 20.5-10l30-38.5q-34-40-81.5-59t-102-23l-6-81.5q-1-11-9-19.75t-21-8.75h-40.5zM174 396.5q0-75 29.75-120.75t83.25-58.75l28.5 363q-71-7-106.25-54.75t-35.25-128.75z" />
<glyph unicode="&#xa3;" glyph-name="uniA3" horiz-adv-x="594" d="M21.5 481.5q0 15.5 9.5 26.75t28 11.25h61.5v126.5q0 48 14 90.75t42.75 74.75 71.75 50.75 100.5 18.75q40.5 0 72.25-10.25t56.5-28 42.75-41.5 31.5-51.25l-44-29q-15.5-7.5-29.5-6.5t-26 15q-9.5 12.5-19.5 22.75t-21.75 18-27 12.25-35.25 4.5q-58.5 0-87.5-37.75t-29-102.75v-127h217v-44.5q0-11-9-20t-22.5-9h-185.5v-111q0-35.5-13.5-62.5t-37-49.5q34.5 7 67.5 7h322v-46.5q0-8.5-3.5-17t-9.75-15.5-15-11.25-19.25-4.25h-492v70q17.5 4.5 33.25 12.75t28 20.25 19.5 28.75 7.25 38.75v140h-99v35.5z" />
<glyph unicode="&#xa4;" glyph-name="uniA4" horiz-adv-x="594" d="M111 480q0 27.5 7.5 52.75t21.5 47.25l-78 77.5 55 55.5 77.5-77.5q22 15 48 23t54.5 8q27.5 0 53-7.75t47.5-21.25l77.5 77.5 55-55.5-77.5-77.5q15-22 23-47.75t8-54.25q0-27.5-7.75-53t-21.75-47l78-77.5-55.5-56-77.5 77.5q-22-14.5-48-22.5t-54-8q-27.5 0-53 7.75t-47 21.25l-78-78-55 56 77 77q-14.5 22-22.25 48t-7.75 54.5zM192 480q0-21.5 8.25-40.5t22.5-33 33.5-22.5 40.75-8.5q22 0 41.5 8.5t33.75 22.5 22.5 33 8.25 40.5q0 22-8.25 41.25t-22.5 33.5-33.75 22.5-41.5 8.25q-21.5 0-40.75-8.25t-33.5-22.5-22.5-33.5-8.25-41.25z" />
<glyph unicode="&#xa5;" glyph-name="uniA5" horiz-adv-x="594" d="M73 457.5h149l-206 415.5h91q16 0 25.75-7.5t15.25-20l126-267.5q8-20.5 14-38t10-34.5q3.5 17 9.25 34.75t13.75 37.75l125 267.5q4.5 10 14.75 18.75t25.25 8.75h92l-206.5-415.5h149v-62h-169v-51h169v-62.5h-169v-146.5h-109.5v146.5h-169v62.5h169v51h-169v62z" />
<glyph unicode="&#xa6;" glyph-name="uniA6" horiz-adv-x="265" d="M90 924.5h85v-410.5h-85v410.5zM90 373h85v-411h-85v411z" />
<glyph unicode="&#xa7;" glyph-name="uniA7" horiz-adv-x="511" d="M416.5 777.5q-4-7-9.25-10.25t-13.25-3.25q-8.5 0-18.75 5.5t-24 12-32.5 11.75-43.75 5.25q-23 0-41-5.25t-30.25-14.75-18.75-22-6.5-27q0-17.5 12.5-31t32.25-25 45.75-22 52.5-22 52.5-25.5 46-32 32.25-41.75 12.25-54.75q0-41-19.5-74.25t-62-53.25q24.5-19 39.25-44t14.75-60q0-37-13.25-68.5t-39-54.5-64-35.75-87.25-12.75q-27 0-52.5 5t-48 13.25-42.25 20-34.75 25.75l25.5 42q9 16.5 28.5 16.5 11 0 21.25-7t24.75-15.25 35.25-15 51.75-6.75q46.5 0 72.25 20.5t25.75 54q0 22-12.5 37.75t-33.25 27.75-47 22.25-53.75 21.25-53.75 24-47 31-33.25 42-12.5 57.5q0 40.5 21.75 72.5t66.75 50.5q-24.5 19.5-39.75 46.75t-15.25 66.25q0 31 12.5 59.25t36.75 49.75 60 34 82.25 12.5q52.5 0 95.25-17t72.75-46zM145.5 506.5q0-23.5 16.25-40t42-30.25 57.5-26 62.25-26.75q24 12 34.5 29t10.5 38q0 24.5-15.5 42t-40 31-55 25.5-60.5 26.5q-28-14-40-30.75t-12-38.25z" />
<glyph unicode="&#xa8;" glyph-name="uniA8" d="M168.5 796.5q0-13.5-5.25-25t-14-20-21-13.5-25.25-5-24.5 5-20.25 13.5-13.75 20-5 25 5 25.5 13.75 21 20.25 14 24.5 5q13.5 0 25.5-5t20.75-14 14-21 5.25-25.5zM370 796.5q0-13.5-5-25t-14-20-20.75-13.5-25.25-5-24.75 5-20 13.5-14 20-5.25 25 5.25 25.5 14 21 20.25 14 24.5 5q13.5 0 25.25-5t20.75-14 14-21 5-25.5z" />
<glyph unicode="&#xa9;" glyph-name="uniA9" horiz-adv-x="847" d="M547 389q4.5 0.5 8.5-1.75t6.5-5.25l37-39.5q-28.5-35.5-71.5-54.5t-102.5-19q-50.5 0-92 18t-70.75 49.5-45.5 75-16.25 94q0 51.5 18 95.25t49.5 75 74.25 48.5 92.75 17.25q56.5 0 96.25-18.25t68.25-47.75l-28.5-40.5q-2.5-3.5-7.5-7t-12-3.5q-7.5 0-15.5 5.25t-19.75 12-29.75 12.25-46 5.5q-33.5 0-59.5-10.75t-44.5-30.75-28.25-48.5-9.75-64q0-37 10-65.5t27.75-48.25 41.75-29.75 52.5-10q26 0 43 4.25t29.25 10 22.25 12 22 10.75zM47.5 504q0 51.5 13.25 99.75t38 90.25 59 76.25 76 59 89.75 38.25 100 13.5q51.5 0 99.75-13.5t90.25-38.25 76.25-59 58.75-76.25 37.75-90 13.25-100q0-51.5-13.5-99.75t-37.75-90-58.5-76-76.25-58.75-90.25-37.75-99.75-13.25-99.75 13.25-90 37.75-76 58.75-59 76-38 90-13.25 99.75zM108.5 504q0-67.5 24.25-126t66.75-101.75 100.25-68.5 123.75-25.25q44 0 85 11.25t76 32 64 50 49.5 65 31.75 77 11.25 86.25-11.25 86.75-31.75 77.75-49.5 65.25-64 50.25-76 32.5-85 11.5q-66 0-123.75-25.25t-100.25-69-66.75-103-24.25-126.75z" />
<glyph unicode="&#xaa;" glyph-name="uniAA" horiz-adv-x="376" d="M277.5 566q-11.5 0-16.75 3t-10.25 13.5l-7 21.5q-12.5-11-23.5-18.75t-23.25-13.25-26.5-8-30.75-2.5q-20.5 0-37.75 5.25t-29.5 16-19.25 26.75-7 37q0 17.5 9.25 34.5t31.25 31.5 58.75 23.75 91.25 10.25v15q0 30-13 43.25t-39 13.25q-18.5 0-30.5-4t-21.25-8.75-17-8.75-16.75-4q-8 0-13.5 4.5t-9.5 10l-14 26q27.5 26 60.25 37.75t71.25 11.75q28 0 50.75-9t38.25-25 23.75-38.25 8.25-48.75v-195.5h-37zM164 617q23 0 39.25 8t33.25 24v47.5q-33-1-55-4.75t-35.25-10-18.75-14.25-5.5-17.5q0-18 11.5-25.5t30.5-7.5z" />
<glyph unicode="&#xab;" glyph-name="uniAB" horiz-adv-x="454" d="M48.5 401.5v14.5l129.5 201.5 36-17.5q14-6.5 16.5-18.5t-5-26l-76-126q-7.5-14-16-20.5 4-3.5 8-8.75t8-11.25l76-126.5q7.5-14 5-26t-16.5-18.5l-36-17.5zM209 401.5v14.5l129.5 201.5 36-17.5q14-6.5 16.5-18.5t-5-26l-76-126q-7.5-14-16-20.5 4-3.5 8-8.75t8-11.25l76-126.5q7.5-14 5-26t-16.5-18.5l-36-17.5z" />
<glyph unicode="&#xac;" glyph-name="uniAC" horiz-adv-x="594" d="M71.5 520.5h447.5v-229h-93v146h-354.5v83z" />
<glyph unicode="&#xad;" glyph-name="uniAD" horiz-adv-x="381" d="M61 490.5h259.5v-93.5h-259.5v93.5z" />
<glyph unicode="&#xae;" glyph-name="uniAE" horiz-adv-x="847" d="M47.5 504q0 51.5 13.25 99.75t38 90.25 59 76.25 76 59 89.75 38.25 100 13.5q51.5 0 99.75-13.5t90.25-38.25 76.25-59 58.75-76.25 37.75-90 13.25-100q0-51.5-13.5-99.75t-37.75-90-58.5-76-76.25-58.75-90.25-37.75-99.75-13.25-99.75 13.25-90 37.75-76 58.75-59 76-38 90-13.25 99.75zM108.5 504q0-67.5 24.25-126t66.75-101.75 100.25-68.5 123.75-25.25q44 0 85 11.25t76 32 64 50 49.5 65 31.75 77 11.25 86.25-11.25 86.75-31.75 77.75-49.5 65.25-64 50.25-76 32.5-85 11.5q-66 0-123.75-25.25t-100.25-69-66.75-103-24.25-126.75zM358.5 449.5v-173h-95.5v457.5h156.5q92 0 135.5-32.75t43.5-96.75q0-46.5-25-80.5t-77-48.5q10-6 17-15t13.5-21l104.5-163h-92q-20 0-28.5 14.5l-87.5 143.5q-5 7-11.25 11t-19.75 4h-34zM358.5 518.5h52q27 0 45.25 4.75t29 14 15.25 23.25 4.5 31.5-4 30.25-13.75 21.25-26 13-41.25 4.5h-61v-142.5z" />
<glyph unicode="&#xaf;" glyph-name="uniAF" d="M55 832.5h300v-71.5h-300v71.5z" />
<glyph unicode="&#xb0;" glyph-name="uniB0" horiz-adv-x="425" d="M40 711.5q0 35.5 13.25 66.75t36.25 54.25 54.5 36.25 68 13.25 68.25-13.25 55-36.25 36.5-54.25 13.25-66.75q0-35-13.25-65.75t-36.5-53.75-55-36.5-68.25-13.5-68 13.5-54.5 36.5-36.25 53.75-13.25 65.75zM117 711q0-20 7.25-37.5t19.75-30.25 30-20 38-7.25 38 7.25 30.25 20 19.75 30.25 7 37.5q0 20.5-7 38.25t-19.75 30.75-30.25 20.5-38 7.5-38-7.5-30-20.5-19.75-30.75-7.25-38.25z" />
<glyph unicode="&#xb1;" glyph-name="uniB1" horiz-adv-x="594" d="M341 762v-186h204v-83h-204v-181h-89v181h-203v83h203v186h89zM49 259.5h496v-83h-496v83z" />
<glyph unicode="&#xb2;" glyph-name="uniB2" horiz-adv-x="342" d="M173.5 977q28 0 51-8.25t38.5-22.5 24-34.25 8.5-43.5q0-21-6.5-38.5t-17.25-33.5-24.5-31-28.75-30l-73-74.5q13.5 4 26 6t23.5 2h82q13 0 19.75-6.75t6.75-18.75v-47h-269.5v26q0 7.5 3 16.25t10 16.25l110 108.5q12.5 12 23 24.75t18.25 25.75 12.25 26 4.5 25.5q0 22-12.75 34.75t-32.75 12.75-32.25-10.25-19.25-28.75q-6-10-13.75-14.25t-23.25-1.75l-44 7.5q8 56.5 44.75 84t91.75 27.5z" />
<glyph unicode="&#xb3;" glyph-name="uniB3" horiz-adv-x="342" d="M174.5 977q27.5 0 49.5-8t37.5-21.25 23.75-31 8.25-37.25q0-64.5-58-89 32.5-9.5 49-28.75t16.5-50.75q0-30-11.25-52.25t-29.75-36.75-42.25-22-48.25-7.5q-28 0-49.75 5.5t-38.5 17.75-28.5 31.5-20.75 46.25l34.5 14.5q13.5 5.5 25 2.75t16-12.25q2.5-5.5 6.5-12.5t10.75-13.25 16.75-10.25 24-4 24 4 17.25 11 10.75 16 3.5 18.5q0 14.5-4 24.5t-13.25 16.25-24.5 9.25-37.75 3v52.5q21.5 0.5 36 4.25t23.5 10.25 12.5 16 3.5 21.5q0 22-12.25 34t-34.25 12q-21.5 0-33.75-10t-17.75-27q-5.5-12-12.5-15.5t-23-1l-41 7.5q4 28 15.5 49t29 34.75 39.75 20.75 47.75 7z" />
<glyph unicode="&#xb4;" glyph-name="uniB4" d="M368.5 881l-123.5-132.5q-8-9-16-12.75t-20.5-3.75h-65.5l74 124q7 13 16.5 19t28 6h107z" />
<glyph unicode="&#xb5;" glyph-name="uniB5" horiz-adv-x="671" d="M198 657.5v-311.5q0-52 24.75-83t73.75-31q43.5 0 75.25 23.5t52.25 66v336h110v-373.5q0-37 18.5-54.25t49-17.25h34v-44q0-15-18.75-26.5t-52.75-11.5q-21.5 0-41.25 6t-36.25 19-28.5 32.25-18 46.75q-29-44.5-66.25-69t-84.25-24.5q-67.5 0-105.5 39 4-21.5 5.5-44t1.5-42v-132h-54.5q-23 0-35.75 12t-12.75 34.5v649h110z" />
<glyph unicode="&#xb6;" glyph-name="uniB6" horiz-adv-x="737" d="M700.5 779h-111v-748.5h-96.5v748.5h-130.5v-748.5h-95.5v434.5q-53 0-96.25 16.25t-73.5 44-46.5 64.75-16.25 79q0 45.5 16.25 83t46.5 64.25 73.25 41.75 96.5 15h433.5v-94z" />
<glyph unicode="&#xb7;" glyph-name="uniB7" horiz-adv-x="274" d="M50 439.5q0 18.5 7 34.75t18.5 28 27.25 18.5 33.25 6.75q18.5 0 34.75-6.75t28-18.5 18.75-28 7-34.75q0-18-7-33.5t-18.75-27.25-28-18.75-34.75-7q-18 0-33.5 7t-27 18.75-18.5 27.25-7 33.5z" />
<glyph unicode="&#xb8;" glyph-name="uniB8" d="M144 11.5q3.5 0 7.25-1.5t9.25-3.25 12.25-3.25 16.25-1.5q19.5 0 29 7.25t9.5 18.25q0 17.5-20 24.25t-58.5 12.75l28.5 87h62l-14-50.5q48-10 68.25-28.75t20.25-46.25q0-17-8.75-30.5t-24.5-23-37.5-14.75-47.75-5.25q-21 0-39.75 3.75t-35.25 10.25l10 34.5q3.5 10.5 13.5 10.5z" />
<glyph unicode="&#xb9;" glyph-name="uniB9" horiz-adv-x="342" d="M78 648h72.5v203l2.5 24-46.5-37.5q-5.5-4-11-5t-10 0-8.5 3.5-6 5l-24 34 117 99h66v-326h62.5v-51.5h-214.5v51.5z" />
<glyph unicode="&#xba;" glyph-name="uniBA" horiz-adv-x="411" d="M206.5 882q36.5 0 66.25-11.25t51-32 33-50.5 11.75-66.75q0-38-11.75-67.75t-33-50.5-51.25-32-66-11.25q-37 0-67.25 11.25t-51.75 32-33.25 50.75-11.75 67.5q0 37 11.75 66.75t33.25 50.5 51.75 32 67.25 11.25zM206.5 625q76.5 0 76 95.5 0 95.5-76 96-40 0-59-23.75t-19-72.25q0-48 19-71.75t59-23.75z" />
<glyph unicode="&#xbb;" glyph-name="uniBB" horiz-adv-x="454" d="M244.5 416v-14.5l-129.5-201-35.5 17.5q-14 6.5-16.5 18.5t5 26l76 126.5 7.5 11.25t7.5 8.75q-8 7-15 20.5l-76 126q-7.5 14.5-5 26t16.5 18.5l35.5 17.5zM405 416v-14.5l-129.5-201-35.5 17.5q-14 6.5-16.5 18.5t5 26l76 126.5 7.5 11.25t7.5 8.75q-8 7-15 20.5l-76 126q-7.5 14.5-5 26t16.5 18.5l35.5 17.5z" />
<glyph unicode="&#xbc;" glyph-name="uniBC" horiz-adv-x="756" d="M223.5 168q-12-19-25-25.75t-31-6.75h-46.5l423.5 700.5q11 17.5 24.75 27.25t33.25 9.75h47zM72 548h72.5v203l2.5 24-46.5-37.5q-5.5-4-11-5t-10 0-8.5 3.5-6 5l-24 34 117 99h66v-326h62.5v-51.5h-214.5v51.5zM665.5 277h51.5v-40.5q0-5.5-4.25-10.25t-11.25-4.75h-36v-86h-66.5v86h-152q-11 0-17 4.75t-7.5 12.25l-6.5 34 173.5 239.5h76v-235zM599 379q0 11.5 0.75 24.5t2.75 27.5l-113-154h109.5v102z" />
<glyph unicode="&#xbd;" glyph-name="uniBD" horiz-adv-x="748" d="M203 168q-12-19-25-25.75t-31-6.75h-46.5l423.5 700.5q11 17.5 24.75 27.25t33.25 9.75h47zM73 548h72.5v203l2.5 24-46.5-37.5q-5.5-4-11-5t-10 0-8.5 3.5-6 5l-24 34 117 99h66v-326h62.5v-51.5h-214.5v51.5zM573.5 516q28 0 51-8.25t38.5-22.5 24-34.25 8.5-43.5q0-21-6.5-38.5t-17.25-33.5-24.5-31-28.75-30l-73-74.5q13.5 4 26 6t23.5 2h82q13 0 19.75-6.75t6.75-18.75v-47h-269.5v26q0 7.5 3 16.25t10 16.25l110 108.5q12.5 12 23 24.75t18.25 25.75 12.25 26 4.5 25.5q0 22-12.75 34.75t-32.75 12.75-32.25-10.25-19.25-28.75q-6-10-13.75-14.25t-23.25-1.75l-44 7.5q8 56.5 44.75 84t91.75 27.5z" />
<glyph unicode="&#xbe;" glyph-name="uniBE" horiz-adv-x="764" d="M233.5 168q-12-19-25-25.75t-31-6.75h-46.5l423.5 700.5q11 17.5 24.75 27.25t33.25 9.75h47zM184.5 877q27.5 0 49.5-8t37.5-21.25 23.75-31 8.25-37.25q0-64.5-58-89 32.5-9.5 49-28.75t16.5-50.75q0-30-11.25-52.25t-29.75-36.75-42.25-22-48.25-7.5q-28 0-49.75 5.5t-38.5 17.75-28.5 31.5-20.75 46.25l34.5 14.5q13.5 5.5 25 2.75t16-12.25q2.5-5.5 6.5-12.5t10.75-13.25 16.75-10.25 24-4 24 4 17.25 11 10.75 16 3.5 18.5q0 14.5-4 24.5t-13.25 16.25-24.5 9.25-37.75 3v52.5q21.5 0.5 36 4.25t23.5 10.25 12.5 16 3.5 21.5q0 22-12.25 34t-34.25 12q-21.5 0-33.75-10t-17.75-27q-5.5-12-12.5-15.5t-23-1l-41 7.5q4 28 15.5 49t29 34.75 39.75 20.75 47.75 7zM673.5 277h51.5v-40.5q0-5.5-4.25-10.25t-11.25-4.75h-36v-86h-66.5v86h-152q-11 0-17 4.75t-7.5 12.25l-6.5 34 173.5 239.5h76v-235zM607 379q0 11.5 0.75 24.5t2.75 27.5l-113-154h109.5v102z" />
<glyph unicode="&#xbf;" glyph-name="uniBF" horiz-adv-x="459" d="M424.5 29.5q-17-15.5-37-29t-43.25-23.75-50.75-16-59-5.75q-42.5 0-78.25 11.5t-61.5 33.25-40 52.75-14.25 69.5q0 39 11.25 66.25t28.75 46.75 38 33 38.5 25.25 31 23.75 16 29l10 76.5h75.5l7.5-84q2.5-25-8-42.25t-27.75-30.5-37.5-25-38.5-26.25-30.25-34-12-48.5q0-20 7.5-36.25t21.25-27.5 32-17.25 39.75-6q29.5 0 51 6.75t36.25 15.25 24.5 15.75 16.75 7.25q15.5 0 23.5-14zM183 594.5q0 15 5.25 27.75t14.75 22.5 22.5 15.5 28 5.75 28-5.75 22.75-15.5 15.25-22.75 5.5-27.5q0-15.5-5.5-28.25t-15.25-22.5-22.75-15.25-28-5.5-28 5.5-22.5 15.25-14.75 22.5-5.25 28.25z" />
<glyph unicode="&#xc0;" glyph-name="uniC0" horiz-adv-x="703" d="M704.5 135.5h-92.5q-16 0-25.75 8t-14.75 19.5l-61.5 163h-317.5l-61.5-163q-4-10-14.25-18.75t-25.75-8.75h-92.5l292.5 737.5h121zM225 412h252.5l-101 269.5q-6 15-12.5 35.25t-13 43.75q-6-24-12.25-44.25t-12.25-35.25zM264.5 1086.5q9 0 16-0.5t12.25-2.75 10-6 9.75-9.75l113.5-140h-79q-13.5 0-21 1.5t-16 10l-162 147.5h116.5z" />
<glyph unicode="&#xc1;" glyph-name="uniC1" horiz-adv-x="703" d="M704.5 135.5h-92.5q-16 0-25.75 8t-14.75 19.5l-61.5 163h-317.5l-61.5-163q-4-10-14.25-18.75t-25.75-8.75h-92.5l292.5 737.5h121zM225 412h252.5l-101 269.5q-6 15-12.5 35.25t-13 43.75q-6-24-12.25-44.25t-12.25-35.25zM556.5 1086.5l-166.5-146.5q-9-8-17.25-10.25t-20.75-2.25h-79.5l113 140q4.5 6.5 9 10t10.25 5.75 12.5 2.75 16.25 0.5h123z" />
<glyph unicode="&#xc2;" glyph-name="uniC2" horiz-adv-x="703" d="M704.5 135.5h-92.5q-16 0-25.75 8t-14.75 19.5l-61.5 163h-317.5l-61.5-163q-4-10-14.25-18.75t-25.75-8.75h-92.5l292.5 737.5h121zM225 412h252.5l-101 269.5q-6 15-12.5 35.25t-13 43.75q-6-24-12.25-44.25t-12.25-35.25zM525.5 927.5h-80q-7 0-16.75 2.5t-20.25 15.5l-50.5 62q-2 2.5-3.5 4.75t-3 4.75q-1.5-2.5-3.25-4.75t-3.75-4.75l-50.5-62q-10-13-19.75-15.5t-17.25-2.5h-76l122.5 140.5h99z" />
<glyph unicode="&#xc3;" glyph-name="uniC3" horiz-adv-x="703" d="M704.5 135.5h-92.5q-16 0-25.75 8t-14.75 19.5l-61.5 163h-317.5l-61.5-163q-4-10-14.25-18.75t-25.75-8.75h-92.5l292.5 737.5h121zM225 412h252.5l-101 269.5q-6 15-12.5 35.25t-13 43.75q-6-24-12.25-44.25t-12.25-35.25zM415.5 997q12 0 20.5 4.75t14 11.75 8.5 15.75 3 17.75h67q0-24-6.75-46t-19.25-39-31.25-27.25-42.75-10.25q-24.5 0-43.5 8.25t-34.5 18.25-29 18-27.5 8q-12 0-20.25-4.5t-14-11.75-8.5-16-2.75-17.75h-67.5q0 23.5 6.5 45.75t19.25 39.5 31.5 27.5 42.75 10.25q24.5 0 43.5-8.25t34.75-18.25 29-18.25 27.25-8.25z" />
<glyph unicode="&#xc4;" glyph-name="uniC4" horiz-adv-x="703" d="M704.5 135.5h-92.5q-16 0-25.75 8t-14.75 19.5l-61.5 163h-317.5l-61.5-163q-4-10-14.25-18.75t-25.75-8.75h-92.5l292.5 737.5h121zM225 412h252.5l-101 269.5q-6 15-12.5 35.25t-13 43.75q-6-24-12.25-44.25t-12.25-35.25zM304 989q0-13-5-24.25t-13.75-19.5-20.5-13.25-24.75-5q-12.5 0-23.5 5t-19.5 13.25-13.25 19.5-4.75 24.25 4.75 24.5 13.25 20.25 19.75 13.75 23.25 5q13 0 24.75-5t20.5-13.75 13.75-20.25 5-24.5zM524 989q0-13-5.25-24.25t-13.75-19.5-19.75-13.25-23.75-5q-13.5 0-24.75 5t-20 13.25-13.5 19.5-4.75 24.25 4.75 24.5 13.5 20.25 20 13.75 24.75 5q13 0 24-5t19.5-13.75 13.75-20.25 5.25-24.5z" />
<glyph unicode="&#xc5;" glyph-name="uniC5" horiz-adv-x="703" d="M704.5 135.5h-92.5q-16 0-25.75 8t-14.75 19.5l-61.5 163h-317.5l-61.5-163q-4-10-14.25-18.75t-25.75-8.75h-92.5l292.5 737.5h121zM225 412h252.5l-101 269.5q-6 15-12.5 35.25t-13 43.75q-6-24-12.25-44.25t-12.25-35.25zM250 1007q0 21 8.25 38.5t22 30.25 32.25 19.5 38.5 6.75q21 0 39.5-6.75t32.75-19.5 22.25-30.25 8-38.5q0-20.5-8-37.75t-22.25-29.5-32.75-18.75-39.5-6.5q-20 0-38.5 6.5t-32.25 18.75-22 29.5-8.25 37.75zM303 1007q0-21 13.25-34.5t36.25-13.5q21.5 0 34.75 13.5t13.25 34.5q0 22-13.25 35.25t-34.75 13.25q-23 0-36.25-13.25t-13.25-35.25z" />
<glyph unicode="&#xc6;" glyph-name="uniC6" horiz-adv-x="954" d="M375 873h536.5v-97h-369l28-222h273v-94h-262l28.5-227.5h302l-0.5-97h-402l-23.5 190.5h-275.5l-81.5-163q-5.5-13-17-20.25t-28-7.25h-91zM253.5 412h221.5l-46 370.5q-7-24-15.25-44.75t-16.25-38.75z" />
<glyph unicode="&#xc7;" glyph-name="uniC7" horiz-adv-x="680" d="M338 11.5q3.5 0 7.25-1.5t9.25-3.25 12.5-3.25 16-1.5q19.5 0 29 7.25t9.5 18.25q0 17.5-20 24.25t-58.5 12.75l21 64.5q-73.5 5-132.75 35t-101 79.25-64.25 116-22.5 144.75q0 83 26.5 152.5t74.25 119.25 114.5 77.5 147.25 27.75q80 0 141.25-25.75t106.25-68.75l-39.5-56q-4-5.5-9.75-9.75t-15.25-4.25q-10 0-23.25 9.5t-33.5 21-50.75 21-76 9.5q-52.5 0-96.75-18.5t-76-53.75-49.25-86-17.5-115.25q0-65 18.5-116t50.75-86 75.75-53.5 93.5-18.5q30.5 0 55 3.5t45 10.75 38.5 18.75 36 27.5q10 9 20.5 9.5 9.5 0 17-8l47.5-51.5q-41.5-49.5-99.25-78.25t-137.75-33.75l-7.5-27.5q48-10 68.25-28.75t20.25-46.25q0-17-8.75-30.5t-24.25-23-37.5-14.75-48-5.25q-21 0-39.5 3.75t-35.5 10.25l10 34.5q3.5 10.5 13.5 10.5z" />
<glyph unicode="&#xc8;" glyph-name="uniC8" horiz-adv-x="590" d="M547.5 873v-97h-339.5v-222h271v-94h-271v-227.5h340l-0.5-97h-460v737.5h460zM238 1086.5q9 0 16-0.5t12.25-2.75 10-6 9.75-9.75l113.5-140h-79q-13.5 0-21 1.5t-16 10l-162 147.5h116.5z" />
<glyph unicode="&#xc9;" glyph-name="uniC9" horiz-adv-x="590" d="M547.5 873v-97h-339.5v-222h271v-94h-271v-227.5h340l-0.5-97h-460v737.5h460zM530 1086.5l-166.5-146.5q-9-8-17.25-10.25t-20.75-2.25h-79.5l113 140q4.5 6.5 9 10t10.25 5.75 12.5 2.75 16.25 0.5h123z" />
<glyph unicode="&#xca;" glyph-name="uniCA" horiz-adv-x="590" d="M547.5 873v-97h-339.5v-222h271v-94h-271v-227.5h340l-0.5-97h-460v737.5h460zM499 927.5h-80q-7 0-16.75 2.5t-20.25 15.5l-50.5 62q-2 2.5-3.5 4.75t-3 4.75q-1.5-2.5-3.25-4.75t-3.75-4.75l-50.5-62q-10-13-19.75-15.5t-17.25-2.5h-76l122.5 140.5h99z" />
<glyph unicode="&#xcb;" glyph-name="uniCB" horiz-adv-x="590" d="M547.5 873v-97h-339.5v-222h271v-94h-271v-227.5h340l-0.5-97h-460v737.5h460zM277.5 989q0-13-5-24.25t-13.75-19.5-20.5-13.25-24.75-5q-12.5 0-23.5 5t-19.5 13.25-13.25 19.5-4.75 24.25 4.75 24.5 13.25 20.25 19.75 13.75 23.25 5q13 0 24.75-5t20.5-13.75 13.75-20.25 5-24.5zM497.5 989q0-13-5.25-24.25t-13.75-19.5-19.75-13.25-23.75-5q-13.5 0-24.75 5t-20 13.25-13.5 19.5-4.75 24.25 4.75 24.5 13.5 20.25 20 13.75 24.75 5q13 0 24-5t19.5-13.75 13.75-20.25 5.25-24.5z" />
<glyph unicode="&#xcc;" glyph-name="uniCC" horiz-adv-x="295" d="M208 135.5h-120.5v737.5h120.5v-737.5zM63 1086.5q9 0 16-0.5t12.25-2.75 10-6 9.75-9.75l113.5-140h-79q-13.5 0-21 1.5t-16 10l-162 147.5h116.5z" />
<glyph unicode="&#xcd;" glyph-name="uniCD" horiz-adv-x="295" d="M208 135.5h-120.5v737.5h120.5v-737.5zM355 1086.5l-166.5-146.5q-9-8-17.25-10.25t-20.75-2.25h-79.5l113 140q4.5 6.5 9 10t10.25 5.75 12.5 2.75 16.25 0.5h123z" />
<glyph unicode="&#xce;" glyph-name="uniCE" horiz-adv-x="295" d="M208 135.5h-120.5v737.5h120.5v-737.5zM323.5 927.5h-80q-7 0-16.75 2.5t-20.25 15.5l-50.5 62q-2 2.5-3.5 4.75t-3 4.75q-1.5-2.5-3.25-4.75t-3.75-4.75l-50.5-62q-10-13-19.75-15.5t-17.25-2.5h-76l122.5 140.5h99z" />
<glyph unicode="&#xcf;" glyph-name="uniCF" horiz-adv-x="295" d="M208 135.5h-120.5v737.5h120.5v-737.5zM102 989q0-13-5-24.25t-13.75-19.5-20.5-13.25-24.75-5q-12.5 0-23.5 5t-19.5 13.25-13.25 19.5-4.75 24.25 4.75 24.5 13.25 20.25 19.75 13.75 23.25 5q13 0 24.75-5t20.5-13.75 13.75-20.25 5-24.5zM322 989q0-13-5.25-24.25t-13.75-19.5-19.75-13.25-23.75-5q-13.5 0-24.75 5t-20 13.25-13.5 19.5-4.75 24.25 4.75 24.5 13.5 20.25 20 13.75 24.75 5q13 0 24-5t19.5-13.75 13.75-20.25 5.25-24.5z" />
<glyph unicode="&#xd0;" glyph-name="uniD0" horiz-adv-x="788" d="M0.5 541.5h96.5v331.5h278.5q83 0 150.75-27t116-75.75 75-116.5 26.75-149.75-26.75-149.75-75-116.25-116.25-75.5-150.5-27h-278.5v337h-96.5v69zM621.5 504q0 63.5-17 114.25t-49 85.5-77.75 53.5-102.25 18.75h-158.5v-234.5h142v-69h-142v-240h158.5q57 0 102.5 18.25t77.5 53.5 49 85.5 17 114.25z" />
<glyph unicode="&#xd1;" glyph-name="uniD1" horiz-adv-x="786" d="M150 873q7.5 0 13-1t10-3 8.75-6 8.75-10l405.5-521q-1.5 16-2.25 31.25t-0.75 28.75v481h105v-737.5h-61q-14 0-23.75 4.75t-18.25 16.25l-405 520q1.5-15 2.25-29.5t0.75-26.5v-485h-105.5v737.5h62.5zM462.5 996.5q12 0 20.5 4.75t14.25 11.75 8.5 15.75 2.75 17.75h67q0-24-6.75-46t-19.25-39-31.25-27.25-42.75-10.25q-24.5 0-43.5 8.25t-34.5 18.25-29 18-27.5 8q-12 0-20.25-4.5t-14-11.75-8.5-16.25-2.75-17.5h-67.5q0 23.5 6.5 45.75t19.5 39.5 31.5 27.5 42.5 10.25q24.5 0 43.5-8.25t34.75-18.25 29-18.25 27.25-8.25z" />
<glyph unicode="&#xd2;" glyph-name="uniD2" horiz-adv-x="824" d="M780.5 504q0-82-26.75-151t-75-119-116.25-78-151-28q-82.5 0-150.25 28t-116.25 78-75.25 119-26.75 151 26.75 151.25 75.25 119.25 116.25 78.25 150.25 28.25q83 0 151-28.25t116.25-78.25 75-119.25 26.75-151.25zM658 504q0 63.5-17.25 114.25t-49.25 86-77.5 54.25-102.5 19q-56.5 0-102-19t-77.75-54.25-49.5-86-17.25-114.25q0-64 17.25-114.5t49.5-85.75 78-54 101.75-18.75q57 0 102.5 18.75t77.5 54 49.25 85.75 17.25 114.5zM326 1086.5q9 0 16-0.5t12.25-2.75 10-6 9.75-9.75l113.5-140h-79q-13.5 0-21 1.5t-16 10l-162 147.5h116.5z" />
<glyph unicode="&#xd3;" glyph-name="uniD3" horiz-adv-x="824" d="M780.5 504q0-82-26.75-151t-75-119-116.25-78-151-28q-82.5 0-150.25 28t-116.25 78-75.25 119-26.75 151 26.75 151.25 75.25 119.25 116.25 78.25 150.25 28.25q83 0 151-28.25t116.25-78.25 75-119.25 26.75-151.25zM658 504q0 63.5-17.25 114.25t-49.25 86-77.5 54.25-102.5 19q-56.5 0-102-19t-77.75-54.25-49.5-86-17.25-114.25q0-64 17.25-114.5t49.5-85.75 78-54 101.75-18.75q57 0 102.5 18.75t77.5 54 49.25 85.75 17.25 114.5zM618 1086.5l-166.5-146.5q-9-8-17.25-10.25t-20.75-2.25h-79.5l113 140q4.5 6.5 9 10t10.25 5.75 12.5 2.75 16.25 0.5h123z" />
<glyph unicode="&#xd4;" glyph-name="uniD4" horiz-adv-x="824" d="M780.5 504q0-82-26.75-151t-75-119-116.25-78-151-28q-82.5 0-150.25 28t-116.25 78-75.25 119-26.75 151 26.75 151.25 75.25 119.25 116.25 78.25 150.25 28.25q83 0 151-28.25t116.25-78.25 75-119.25 26.75-151.25zM658 504q0 63.5-17.25 114.25t-49.25 86-77.5 54.25-102.5 19q-56.5 0-102-19t-77.75-54.25-49.5-86-17.25-114.25q0-64 17.25-114.5t49.5-85.75 78-54 101.75-18.75q57 0 102.5 18.75t77.5 54 49.25 85.75 17.25 114.5zM587 927.5h-80q-7 0-16.75 2.5t-20.25 15.5l-50.5 62q-2 2.5-3.5 4.75t-3 4.75q-1.5-2.5-3.25-4.75t-3.75-4.75l-50.5-62q-10-13-19.75-15.5t-17.25-2.5h-76l122.5 140.5h99z" />
<glyph unicode="&#xd5;" glyph-name="uniD5" horiz-adv-x="824" d="M780.5 504q0-82-26.75-151t-75-119-116.25-78-151-28q-82.5 0-150.25 28t-116.25 78-75.25 119-26.75 151 26.75 151.25 75.25 119.25 116.25 78.25 150.25 28.25q83 0 151-28.25t116.25-78.25 75-119.25 26.75-151.25zM658 504q0 63.5-17.25 114.25t-49.25 86-77.5 54.25-102.5 19q-56.5 0-102-19t-77.75-54.25-49.5-86-17.25-114.25q0-64 17.25-114.5t49.5-85.75 78-54 101.75-18.75q57 0 102.5 18.75t77.5 54 49.25 85.75 17.25 114.5zM477 997q12 0 20.5 4.75t14 11.75 8.5 15.75 3 17.75h67q0-24-6.75-46t-19.25-39-31.25-27.25-42.75-10.25q-24.5 0-43.5 8.25t-34.5 18.25-29 18-27.5 8q-12 0-20.25-4.5t-14-11.75-8.5-16-2.75-17.75h-67.5q0 23.5 6.5 45.75t19.25 39.5 31.5 27.5 42.75 10.25q24.5 0 43.5-8.25t34.75-18.25 29-18.25 27.25-8.25z" />
<glyph unicode="&#xd6;" glyph-name="uniD6" horiz-adv-x="824" d="M780.5 504q0-82-26.75-151t-75-119-116.25-78-151-28q-82.5 0-150.25 28t-116.25 78-75.25 119-26.75 151 26.75 151.25 75.25 119.25 116.25 78.25 150.25 28.25q83 0 151-28.25t116.25-78.25 75-119.25 26.75-151.25zM658 504q0 63.5-17.25 114.25t-49.25 86-77.5 54.25-102.5 19q-56.5 0-102-19t-77.75-54.25-49.5-86-17.25-114.25q0-64 17.25-114.5t49.5-85.75 78-54 101.75-18.75q57 0 102.5 18.75t77.5 54 49.25 85.75 17.25 114.5zM365.5 989q0-13-5-24.25t-13.75-19.5-20.5-13.25-24.75-5q-12.5 0-23.5 5t-19.5 13.25-13.25 19.5-4.75 24.25 4.75 24.5 13.25 20.25 19.75 13.75 23.25 5q13 0 24.75-5t20.5-13.75 13.75-20.25 5-24.5zM585.5 989q0-13-5.25-24.25t-13.75-19.5-19.75-13.25-23.75-5q-13.5 0-24.75 5t-20 13.25-13.5 19.5-4.75 24.25 4.75 24.5 13.5 20.25 20 13.75 24.75 5q13 0 24-5t19.5-13.75 13.75-20.25 5.25-24.5z" />
<glyph unicode="&#xd7;" glyph-name="uniD7" horiz-adv-x="594" d="M527 649.5l-170.5-170.5 177-177-58.5-59-177.5 177-178-178-58.5 59 178 178-171.5 171.5 58.5 59 171.5-172 170.5 171z" />
<glyph unicode="&#xd8;" glyph-name="uniD8" horiz-adv-x="824" d="M780.5 504q0-82-26.75-151t-75-119-116.25-78-151-28q-53 0-100 11.5t-86.5 33.5l-45-61q-13.5-18-31.25-25.5t-35.25-7.5h-47.5l99 136q-58 50.5-90 124.5t-32 164.5q0 82 26.75 151.25t75.25 119.25 116.25 78.25 150.25 28.25q58 0 108.5-13.75t92.5-40.25l35.5 49.5q6 8 11 13.75t10.5 9.25 12.25 5.25 16.75 1.75h61.5l-90.5-123.5q52.5-51 81.75-122t29.25-157zM165 504q0-64 16.75-113.75t49.25-85.25l318 435.5q-28 18-62.75 27.5t-74.75 9.5q-56.5 0-102-19t-77.75-54.25-49.5-86-17.25-114.25zM658 504q0 58.5-14.5 105t-41 82l-315-431q53-28.5 124-29 57 0 102.5 18.75t77.5 54 49.25 85.75 17.25 114.5z" />
<glyph unicode="&#xd9;" glyph-name="uniD9" horiz-adv-x="757" d="M378.5 232.5q42.5 0 76 14.25t56.75 39.75 35.5 61.75 12.25 80.25v444.5h119.5v-444.5q0-65-20.75-120.5t-59.75-95.5-94.5-62.75-125-22.75-125.25 22.75-94.5 62.75-59.5 95.5-20.75 120.5v444.5h119.5v-444q0-44 12.25-80.25t35.5-62 56.75-40 76-14.25zM292 1086.5q9 0 16-0.5t12.25-2.75 10-6 9.75-9.75l113.5-140h-79q-13.5 0-21 1.5t-16 10l-162 147.5h116.5z" />
<glyph unicode="&#xda;" glyph-name="uniDA" horiz-adv-x="757" d="M378.5 232.5q42.5 0 76 14.25t56.75 39.75 35.5 61.75 12.25 80.25v444.5h119.5v-444.5q0-65-20.75-120.5t-59.75-95.5-94.5-62.75-125-22.75-125.25 22.75-94.5 62.75-59.5 95.5-20.75 120.5v444.5h119.5v-444q0-44 12.25-80.25t35.5-62 56.75-40 76-14.25zM584 1086.5l-166.5-146.5q-9-8-17.25-10.25t-20.75-2.25h-79.5l113 140q4.5 6.5 9 10t10.25 5.75 12.5 2.75 16.25 0.5h123z" />
<glyph unicode="&#xdb;" glyph-name="uniDB" horiz-adv-x="757" d="M378.5 232.5q42.5 0 76 14.25t56.75 39.75 35.5 61.75 12.25 80.25v444.5h119.5v-444.5q0-65-20.75-120.5t-59.75-95.5-94.5-62.75-125-22.75-125.25 22.75-94.5 62.75-59.5 95.5-20.75 120.5v444.5h119.5v-444q0-44 12.25-80.25t35.5-62 56.75-40 76-14.25zM552.5 927.5h-80q-7 0-16.75 2.5t-20.25 15.5l-50.5 62q-2 2.5-3.5 4.75t-3 4.75q-1.5-2.5-3.25-4.75t-3.75-4.75l-50.5-62q-10-13-19.75-15.5t-17.25-2.5h-76l122.5 140.5h99z" />
<glyph unicode="&#xdc;" glyph-name="uniDC" horiz-adv-x="757" d="M378.5 232.5q42.5 0 76 14.25t56.75 39.75 35.5 61.75 12.25 80.25v444.5h119.5v-444.5q0-65-20.75-120.5t-59.75-95.5-94.5-62.75-125-22.75-125.25 22.75-94.5 62.75-59.5 95.5-20.75 120.5v444.5h119.5v-444q0-44 12.25-80.25t35.5-62 56.75-40 76-14.25zM331 989q0-13-5-24.25t-13.75-19.5-20.5-13.25-24.75-5q-12.5 0-23.5 5t-19.5 13.25-13.25 19.5-4.75 24.25 4.75 24.5 13.25 20.25 19.75 13.75 23.25 5q13 0 24.75-5t20.5-13.75 13.75-20.25 5-24.5zM551 989q0-13-5.25-24.25t-13.75-19.5-19.75-13.25-23.75-5q-13.5 0-24.75 5t-20 13.25-13.5 19.5-4.75 24.25 4.75 24.5 13.5 20.25 20 13.75 24.75 5q13 0 24-5t19.5-13.75 13.75-20.25 5.25-24.5z" />
<glyph unicode="&#xdd;" glyph-name="uniDD" horiz-adv-x="652" d="M385.5 424.5v-289h-119.5v289l-269 448.5h105q16 0 25-7.75t15.5-19.75l151-264q10-20 18.5-38t14.5-35.5q6 18 14.25 35.75t18.75 37.75l150 264q5 10 14.75 18.75t25.25 8.75h105.5zM532 1086.5l-166.5-146.5q-9-8-17.25-10.25t-20.75-2.25h-79.5l113 140q4.5 6.5 9 10t10.25 5.75 12.5 2.75 16.25 0.5h123z" />
<glyph unicode="&#xde;" glyph-name="uniDE" horiz-adv-x="622" d="M207.5 271.5v-136h-120v737.5h120v-131h109.5q72 0 125-16.75t87.5-47.5 51.5-73.5 17-94.25q0-52-18-96t-53.25-75.5-87.75-49.25-122-17.75h-109.5zM207.5 366.5h109.5q40 0 70.5 10.25t50.5 29 30.25 45.25 10.25 59q0 64.5-39.75 101.5t-121.75 37h-109.5v-282z" />
<glyph unicode="&#xdf;" glyph-name="uniDF" horiz-adv-x="606" d="M326 885q57 0 97.5-16.5t66.25-41.5 38-54.5 12.25-55.5q0-30-10.5-51.5t-26-37.75-34-28.75-34-23.75-26-23.5-10.5-27.75q0-18.5 13-31.25t33-24.25 42.75-24.25 42.75-31.5 33-45.25 13-66q0-42-15.25-74.25t-42-54.5-62.5-33.75-76.25-11.5q-48 0-90.25 18t-73.25 46l25.5 42q4.5 7.5 11.5 11.75t17.5 4.25q11 0 21-6.75t23.5-15 31.25-15.25 42.75-7q19 0 34.5 6t26.5 16.5 16.75 24.5 5.75 31q0 26-14 43t-35 29.75-45.5 24.25-45.5 27-35.25 38-14.25 56.5q0 28 11 48.75t27.75 37 36.25 29.75 36 28 27.5 31.25 11 39.75q0 17-6 32.5t-19.75 28-35 19.75-51.25 7.25q-68 0-106.5-42.25t-38.5-123.75v-502.5h-109.5v505.5q0 54 18.25 98.5t52 77 81.5 50.5 107.25 18z" />
<glyph unicode="&#xe0;" glyph-name="uniE0" horiz-adv-x="515" d="M404 135.5q-16 0-24.25 4.75t-13.75 19.75l-10.5 42.5q-20-18.5-39.5-32.25t-40.25-23.5-44.5-14.5-52.75-4.75q-31.5 0-59 8.5t-47.5 26.25-31.5 44-11.5 61.25q0 30 16.25 58.75t53.25 51.5 97.75 37.75 149.75 17v35q0 56.5-24 84t-70.5 27.5q-31.5 0-53.25-8t-37.5-17.25-28-17.25-26.25-8q-11.5 0-19.25 6t-13.25 14.5l-19.5 36q88.5 82.5 210.5 82.5 45 0 80.25-14.5t59-41.25 36.25-63.25 12.5-81v-332h-49zM212 204q43 0 74 16.25t60 46.25v97.5q-59-2.5-99.25-9.75t-65.5-19-36.25-27.5-11-34.75q0-18.5 6-31.5t16.5-21.25 24.5-12.25 31-4zM205 881q19 0 28.25-6.25t16.25-18.75l75-124h-62.5q-13 0-20.75 3.5t-16.25 13l-123.5 132.5h103.5z" />
<glyph unicode="&#xe1;" glyph-name="uniE1" horiz-adv-x="515" d="M404 135.5q-16 0-24.25 4.75t-13.75 19.75l-10.5 42.5q-20-18.5-39.5-32.25t-40.25-23.5-44.5-14.5-52.75-4.75q-31.5 0-59 8.5t-47.5 26.25-31.5 44-11.5 61.25q0 30 16.25 58.75t53.25 51.5 97.75 37.75 149.75 17v35q0 56.5-24 84t-70.5 27.5q-31.5 0-53.25-8t-37.5-17.25-28-17.25-26.25-8q-11.5 0-19.25 6t-13.25 14.5l-19.5 36q88.5 82.5 210.5 82.5 45 0 80.25-14.5t59-41.25 36.25-63.25 12.5-81v-332h-49zM212 204q43 0 74 16.25t60 46.25v97.5q-59-2.5-99.25-9.75t-65.5-19-36.25-27.5-11-34.75q0-18.5 6-31.5t16.5-21.25 24.5-12.25 31-4zM417 881l-123.5-132.5q-8-9-16-12.75t-20.5-3.75h-65.5l74 124q7 13 16.5 19t28 6h107z" />
<glyph unicode="&#xe2;" glyph-name="uniE2" horiz-adv-x="515" d="M404 135.5q-16 0-24.25 4.75t-13.75 19.75l-10.5 42.5q-20-18.5-39.5-32.25t-40.25-23.5-44.5-14.5-52.75-4.75q-31.5 0-59 8.5t-47.5 26.25-31.5 44-11.5 61.25q0 30 16.25 58.75t53.25 51.5 97.75 37.75 149.75 17v35q0 56.5-24 84t-70.5 27.5q-31.5 0-53.25-8t-37.5-17.25-28-17.25-26.25-8q-11.5 0-19.25 6t-13.25 14.5l-19.5 36q88.5 82.5 210.5 82.5 45 0 80.25-14.5t59-41.25 36.25-63.25 12.5-81v-332h-49zM212 204q43 0 74 16.25t60 46.25v97.5q-59-2.5-99.25-9.75t-65.5-19-36.25-27.5-11-34.75q0-18.5 6-31.5t16.5-21.25 24.5-12.25 31-4zM420.5 734h-73.5q-6.5 0-13 2t-13 9.5l-56.5 59q-2.5 2.5-4.75 5.25t-4.75 5.75q-4.5-6-9.5-11l-57-59q-5.5-5.5-12.25-8.5t-14.25-3h-76l116 139h102.5z" />
<glyph unicode="&#xe3;" glyph-name="uniE3" horiz-adv-x="515" d="M404 135.5q-16 0-24.25 4.75t-13.75 19.75l-10.5 42.5q-20-18.5-39.5-32.25t-40.25-23.5-44.5-14.5-52.75-4.75q-31.5 0-59 8.5t-47.5 26.25-31.5 44-11.5 61.25q0 30 16.25 58.75t53.25 51.5 97.75 37.75 149.75 17v35q0 56.5-24 84t-70.5 27.5q-31.5 0-53.25-8t-37.5-17.25-28-17.25-26.25-8q-11.5 0-19.25 6t-13.25 14.5l-19.5 36q88.5 82.5 210.5 82.5 45 0 80.25-14.5t59-41.25 36.25-63.25 12.5-81v-332h-49zM212 204q43 0 74 16.25t60 46.25v97.5q-59-2.5-99.25-9.75t-65.5-19-36.25-27.5-11-34.75q0-18.5 6-31.5t16.5-21.25 24.5-12.25 31-4zM309 823.5q16.5 0 25.75 9.5t9.75 31.5h67q0-26.5-7.25-48.25t-20.25-37.5-31.25-24-39.75-8.25q-18 0-33.75 6.75t-29.5 15-26 15.25-23.25 7q-16.5 0-25.75-10t-9.25-32h-68q0 26.5 7.5 48.5t20.5 37.75 31.25 24.25 39.75 8.5q18.5 0 34.25-6.75t29.75-15 25.75-15.25 22.75-7z" />
<glyph unicode="&#xe4;" glyph-name="uniE4" horiz-adv-x="515" d="M404 135.5q-16 0-24.25 4.75t-13.75 19.75l-10.5 42.5q-20-18.5-39.5-32.25t-40.25-23.5-44.5-14.5-52.75-4.75q-31.5 0-59 8.5t-47.5 26.25-31.5 44-11.5 61.25q0 30 16.25 58.75t53.25 51.5 97.75 37.75 149.75 17v35q0 56.5-24 84t-70.5 27.5q-31.5 0-53.25-8t-37.5-17.25-28-17.25-26.25-8q-11.5 0-19.25 6t-13.25 14.5l-19.5 36q88.5 82.5 210.5 82.5 45 0 80.25-14.5t59-41.25 36.25-63.25 12.5-81v-332h-49zM212 204q43 0 74 16.25t60 46.25v97.5q-59-2.5-99.25-9.75t-65.5-19-36.25-27.5-11-34.75q0-18.5 6-31.5t16.5-21.25 24.5-12.25 31-4zM217 796.5q0-13.5-5.25-25t-14-20-21-13.5-25.25-5-24.5 5-20.25 13.5-13.75 20-5 25 5 25.5 13.75 21 20.25 14 24.5 5q13.5 0 25.5-5t20.75-14 14-21 5.25-25.5zM418.5 796.5q0-13.5-5-25t-14-20-20.75-13.5-25.25-5-24.75 5-20 13.5-14 20-5.25 25 5.25 25.5 14 21 20.25 14 24.5 5q13.5 0 25.25-5t20.75-14 14-21 5-25.5z" />
<glyph unicode="&#xe5;" glyph-name="uniE5" horiz-adv-x="515" d="M404 135.5q-16 0-24.25 4.75t-13.75 19.75l-10.5 42.5q-20-18.5-39.5-32.25t-40.25-23.5-44.5-14.5-52.75-4.75q-31.5 0-59 8.5t-47.5 26.25-31.5 44-11.5 61.25q0 30 16.25 58.75t53.25 51.5 97.75 37.75 149.75 17v35q0 56.5-24 84t-70.5 27.5q-31.5 0-53.25-8t-37.5-17.25-28-17.25-26.25-8q-11.5 0-19.25 6t-13.25 14.5l-19.5 36q88.5 82.5 210.5 82.5 45 0 80.25-14.5t59-41.25 36.25-63.25 12.5-81v-332h-49zM212 204q43 0 74 16.25t60 46.25v97.5q-59-2.5-99.25-9.75t-65.5-19-36.25-27.5-11-34.75q0-18.5 6-31.5t16.5-21.25 24.5-12.25 31-4zM146 812q0 22.5 8.5 41.25t23.5 32 34.75 20.25 41.25 7q22 0 41.75-7t34.75-20.25 24-32 9-41.25-9-40.75-24-31.25-34.75-20.25-41.75-7.25q-21.5 0-41.25 7.25t-34.75 20.25-23.5 31.25-8.5 40.75zM206 812q0-21.5 13-35t36-13.5q21.5 0 34.75 13.5t13.25 35q0 22-13.25 35.25t-34.75 13.25q-23 0-36-13.25t-13-35.25z" />
<glyph unicode="&#xe6;" glyph-name="uniE6" horiz-adv-x="827" d="M585 666q43.5 0 81-17t65.25-48.75 43.25-77 15.5-102.75q0-25.5-5-34.25t-20-8.75h-314q3-41.5 14-72t29.5-50.75 43.5-30.25 55.5-10q35.5 0 58 6.75t37.5 15.25 24.75 15.75 18.75 7.25q16.5 0 22.5-10.5l30-37.5q-19-23-43-39t-50.5-26-54-14.25-54.5-4.25q-58 0-106.25 26.75t-78.25 82.75q-15-29-37.25-50.25t-49.5-34.5-57.75-19.25-61-6q-37 0-66.75 9t-51.5 27.5-33.25 46.25-11.5 64.25q0 30 16.25 59.75t53.25 53.75 97.75 39.75 149.75 18.25v21.5q0 56.5-24 85.75t-70.5 29.25q-31.5 0-53.25-8.5t-37.5-18.5-28-18.5-26.25-8.5q-11.5 0-19.25 6t-12.75 14.5l-20 36q44 41 92 61.75t107 20.75q60.5 0 98-24.25t56-66.75q28.5 41.5 72.5 65.5t104 24zM347 377.5q-59-2.5-99.25-11t-65.25-21.5-36-29.5-11-35.5q0-39.5 22.5-57.75t60.5-18.25q27 0 50.75 8.5t40.75 26 27 44 10 63v32zM581 586q-58 0-90-37t-39.5-103.5h240.5q0 29-7 54.5t-21.25 44.75-35 30.25-47.75 11z" />
<glyph unicode="&#xe7;" glyph-name="uniE7" horiz-adv-x="492" d="M215.5 11.5q3 0 7-1.5t9.25-3.25 12.25-3.25 16.5-1.5q19 0 28.5 7.25t9.5 18.25q0 17.5-19.75 24.25t-58.75 12.75l21.5 65q-43.5 5-80.5 25.25t-64.5 54.25-42.75 81.25-15.25 106.75q0 58 16.25 107.5t47.75 85.25 78.25 56 107.75 20.25q57 0 100-18.5t77-52l-29.5-40q-5-6.5-9.5-10.25t-13.5-3.75q-8.5 0-18 6.25t-22.5 13.5-31.5 13.5-46 6.25q-36 0-62.75-12.75t-45-36.75-27.25-58-9-76.5q0-44 9.75-78.25t28-57.75 44-35.75 58.25-12.25q31.5 0 51.5 7.5t33.25 16.75 22.75 17 20.5 7.75q13.5 0 20.5-10.5l31-40q-32.5-39-75.25-58.25t-90.75-23.75l-7.5-28.5q47.5-10 67.75-29t20.25-46q0-17-8.75-30.5t-24.25-23-37.25-14.75-47.75-5.25q-21 0-39.75 3.75t-35.25 10.25l10 34.5q3.5 10.5 13.5 10.5z" />
<glyph unicode="&#xe8;" glyph-name="uniE8" horiz-adv-x="544" d="M285.5 666q48 0 89-15.75t70.75-45.75 46.5-74 16.75-99.5q0-25.5-5.75-34.25t-20.25-8.75h-335.5q2-44.5 13.75-77t31.5-54 47.25-32 61-10.5q32.5 0 56 7.25t40.75 16.25 29.75 16.5 22.5 7.5q13.5 0 20.5-10.5l31-40q-19.5-23-44-39t-52-26-56.75-14.25-56.75-4.25q-54.5 0-100.75 18t-80.25 53.5-53.25 87.75-19.25 120.25q0 54.5 17 101.5t49 81.75 77.75 55 103.75 20.25zM287.5 586q-60 0-94.25-34.25t-43.25-96.25h259.5q0 27.5-8 51.5t-23.25 41.5-38.25 27.5-52.5 10zM240 881q19 0 28.25-6.25t16.25-18.75l75-124h-62.5q-13 0-20.75 3.5t-16.25 13l-123.5 132.5h103.5z" />
<glyph unicode="&#xe9;" glyph-name="uniE9" horiz-adv-x="544" d="M285.5 666q48 0 89-15.75t70.75-45.75 46.5-74 16.75-99.5q0-25.5-5.75-34.25t-20.25-8.75h-335.5q2-44.5 13.75-77t31.5-54 47.25-32 61-10.5q32.5 0 56 7.25t40.75 16.25 29.75 16.5 22.5 7.5q13.5 0 20.5-10.5l31-40q-19.5-23-44-39t-52-26-56.75-14.25-56.75-4.25q-54.5 0-100.75 18t-80.25 53.5-53.25 87.75-19.25 120.25q0 54.5 17 101.5t49 81.75 77.75 55 103.75 20.25zM287.5 586q-60 0-94.25-34.25t-43.25-96.25h259.5q0 27.5-8 51.5t-23.25 41.5-38.25 27.5-52.5 10zM452 881l-123.5-132.5q-8-9-16-12.75t-20.5-3.75h-65.5l74 124q7 13 16.5 19t28 6h107z" />
<glyph unicode="&#xea;" glyph-name="uniEA" horiz-adv-x="544" d="M285.5 666q48 0 89-15.75t70.75-45.75 46.5-74 16.75-99.5q0-25.5-5.75-34.25t-20.25-8.75h-335.5q2-44.5 13.75-77t31.5-54 47.25-32 61-10.5q32.5 0 56 7.25t40.75 16.25 29.75 16.5 22.5 7.5q13.5 0 20.5-10.5l31-40q-19.5-23-44-39t-52-26-56.75-14.25-56.75-4.25q-54.5 0-100.75 18t-80.25 53.5-53.25 87.75-19.25 120.25q0 54.5 17 101.5t49 81.75 77.75 55 103.75 20.25zM287.5 586q-60 0-94.25-34.25t-43.25-96.25h259.5q0 27.5-8 51.5t-23.25 41.5-38.25 27.5-52.5 10zM455.5 734h-73.5q-6.5 0-13 2t-13 9.5l-56.5 59q-2.5 2.5-4.75 5.25t-4.75 5.75q-4.5-6-9.5-11l-57-59q-5.5-5.5-12.25-8.5t-14.25-3h-76l116 139h102.5z" />
<glyph unicode="&#xeb;" glyph-name="uniEB" horiz-adv-x="544" d="M285.5 666q48 0 89-15.75t70.75-45.75 46.5-74 16.75-99.5q0-25.5-5.75-34.25t-20.25-8.75h-335.5q2-44.5 13.75-77t31.5-54 47.25-32 61-10.5q32.5 0 56 7.25t40.75 16.25 29.75 16.5 22.5 7.5q13.5 0 20.5-10.5l31-40q-19.5-23-44-39t-52-26-56.75-14.25-56.75-4.25q-54.5 0-100.75 18t-80.25 53.5-53.25 87.75-19.25 120.25q0 54.5 17 101.5t49 81.75 77.75 55 103.75 20.25zM287.5 586q-60 0-94.25-34.25t-43.25-96.25h259.5q0 27.5-8 51.5t-23.25 41.5-38.25 27.5-52.5 10zM252 796.5q0-13.5-5.25-25t-14-20-21-13.5-25.25-5-24.5 5-20.25 13.5-13.75 20-5 25 5 25.5 13.75 21 20.25 14 24.5 5q13.5 0 25.5-5t20.75-14 14-21 5.25-25.5zM453.5 796.5q0-13.5-5-25t-14-20-20.75-13.5-25.25-5-24.75 5-20 13.5-14 20-5.25 25 5.25 25.5 14 21 20.25 14 24.5 5q13.5 0 25.25-5t20.75-14 14-21 5-25.5z" />
<glyph unicode="&#xec;" glyph-name="uniEC" horiz-adv-x="253" d="M181.5 657.5v-522h-110v522h110zM81 881q19 0 28.25-6.25t16.25-18.75l75-124h-62.5q-13 0-20.75 3.5t-16.25 13l-123.5 132.5h103.5z" />
<glyph unicode="&#xed;" glyph-name="uniED" horiz-adv-x="253" d="M182 657.5v-522h-110v522h110zM293.5 881l-123.5-132.5q-8-9-16-12.75t-20.5-3.75h-65.5l74 124q7 13 16.5 19t28 6h107z" />
<glyph unicode="&#xee;" glyph-name="uniEE" horiz-adv-x="253" d="M181.5 657.5v-522h-110v522h110zM296.5 734h-73.5q-6.5 0-13 2t-13 9.5l-56.5 59q-2.5 2.5-4.75 5.25t-4.75 5.75q-4.5-6-9.5-11l-57-59q-5.5-5.5-12.25-8.5t-14.25-3h-76l116 139h102.5z" />
<glyph unicode="&#xef;" glyph-name="uniEF" horiz-adv-x="253" d="M181.5 657.5v-522h-110v522h110zM110.5 796.5q0-13.5-5.5-25t-14.5-20-20.75-13.5-24.75-5-24.5 5-20.25 13.5-13.75 20-5 25 5 25.5 13.75 21 20.25 14 24.5 5q13.5 0 25-5t20.5-14 14.5-21 5.5-25.5zM277.5 796.5q0-13.5-5.25-25t-14-20-20.5-13.5-24.75-5q-13.5 0-25.25 5t-20.5 13.5-14 20-5.25 25 5.25 25.5 14 21 20.5 14 25.25 5 25-5 20.25-14 14-21 5.25-25.5z" />
<glyph unicode="&#xf0;" glyph-name="uniF0" horiz-adv-x="582" d="M206.5 680q-7 11-4.5 20.75t13.5 16.25l44.5 28.5q-19.5 8-41 15.25t-46 13.25q-7 2-13 6.25t-9.5 10.75-3.75 15.5 3.75 19.5l13 38.5q50-8 97.25-24t89.25-40.5l88 60 21.5-35.5q6-10 3.75-19.75t-12.75-15.75l-44.5-28.5q29.5-25.5 54.25-57.5t41.75-71.25 26.5-85.5 9.5-100.25q0-74-16.5-133t-49-100-80.5-62.75-111-21.75q-51.5 0-95.75 16.75t-77.25 48.75-51.75 78-18.75 104q0 47.5 16 90t46.25 75 73 51.25 96.25 18.75q50 0 92.5-19.75t74.5-57.75q-11 61-38.25 104.5t-73.75 74l-97-67zM284 213.5q33 0 59.75 12t46.25 37.75 31 65.75 13 95.5q-8 20.5-20.5 38.75t-30.25 32.5-40.75 22.25-52 8q-35.5 0-62.5-11.75t-45-32-27.25-47.75-9.25-59q0-39.5 10.75-69.5t29.75-50.75 43.75-31.25 53.25-10.5z" />
<glyph unicode="&#xf1;" glyph-name="uniF1" horiz-adv-x="574" d="M67 135.5v522h66.5q22.5 0 29-21l7.5-48.5q16.5 17.5 34.5 31.75t38.5 24.5 44 16 50.5 5.75q43 0 75.5-14.25t54.75-40.5 33.5-62.75 11.25-80.5v-332.5h-109.5v332.5q0 52.5-24.25 81.75t-74.25 29.25q-37 0-68.25-17t-59.25-46v-380.5h-110zM347 823.5q16.5 0 25.75 9.5t9.75 31.5h67q0-26.5-7.25-48.25t-20.25-37.5-31.25-24-39.75-8.25q-18 0-33.75 6.75t-29.5 15-26 15.25-23.25 7q-16.5 0-25.75-10t-9.25-32h-68q0 26.5 7.5 48.5t20.5 37.75 31.25 24.25 39.75 8.5q18.5 0 34.25-6.75t29.75-15 25.75-15.25 22.75-7z" />
<glyph unicode="&#xf2;" glyph-name="uniF2" horiz-adv-x="585" d="M293 666q58 0 104.75-19t79.75-53.75 51-84.5 18-111.75-18-111.5-51-84.75-80-54-104.5-18.75q-58.5 0-105.25 18.75t-80.25 54-51.25 84.75-17.75 111.5 17.75 111.75 51.25 84.5 80.25 53.75 105.25 19zM293 214q70.5 0 105 47.25t34.5 135.25-34.5 136-105 48q-71.5 0-106.5-48t-35-136 35-135.25 106.5-47.25zM245 881q19 0 28.25-6.25t16.25-18.75l75-124h-62.5q-13 0-20.75 3.5t-16.25 13l-123.5 132.5h103.5z" />
<glyph unicode="&#xf3;" glyph-name="uniF3" horiz-adv-x="585" d="M293 666q58 0 104.75-19t79.75-53.75 51-84.5 18-111.75-18-111.5-51-84.75-80-54-104.5-18.75q-58.5 0-105.25 18.75t-80.25 54-51.25 84.75-17.75 111.5 17.75 111.75 51.25 84.5 80.25 53.75 105.25 19zM293 214q70.5 0 105 47.25t34.5 135.25-34.5 136-105 48q-71.5 0-106.5-48t-35-136 35-135.25 106.5-47.25zM457 881l-123.5-132.5q-8-9-16-12.75t-20.5-3.75h-65.5l74 124q7 13 16.5 19t28 6h107z" />
<glyph unicode="&#xf4;" glyph-name="uniF4" horiz-adv-x="585" d="M293 666q58 0 104.75-19t79.75-53.75 51-84.5 18-111.75-18-111.5-51-84.75-80-54-104.5-18.75q-58.5 0-105.25 18.75t-80.25 54-51.25 84.75-17.75 111.5 17.75 111.75 51.25 84.5 80.25 53.75 105.25 19zM293 214q70.5 0 105 47.25t34.5 135.25-34.5 136-105 48q-71.5 0-106.5-48t-35-136 35-135.25 106.5-47.25zM460.5 734h-73.5q-6.5 0-13 2t-13 9.5l-56.5 59q-2.5 2.5-4.75 5.25t-4.75 5.75q-4.5-6-9.5-11l-57-59q-5.5-5.5-12.25-8.5t-14.25-3h-76l116 139h102.5z" />
<glyph unicode="&#xf5;" glyph-name="uniF5" horiz-adv-x="585" d="M293 666q58 0 104.75-19t79.75-53.75 51-84.5 18-111.75-18-111.5-51-84.75-80-54-104.5-18.75q-58.5 0-105.25 18.75t-80.25 54-51.25 84.75-17.75 111.5 17.75 111.75 51.25 84.5 80.25 53.75 105.25 19zM293 214q70.5 0 105 47.25t34.5 135.25-34.5 136-105 48q-71.5 0-106.5-48t-35-136 35-135.25 106.5-47.25zM349 823.5q16.5 0 25.75 9.5t9.75 31.5h67q0-26.5-7.25-48.25t-20.25-37.5-31.25-24-39.75-8.25q-18 0-33.75 6.75t-29.5 15-26 15.25-23.25 7q-16.5 0-25.75-10t-9.25-32h-68q0 26.5 7.5 48.5t20.5 37.75 31.25 24.25 39.75 8.5q18.5 0 34.25-6.75t29.75-15 25.75-15.25 22.75-7z" />
<glyph unicode="&#xf6;" glyph-name="uniF6" horiz-adv-x="585" d="M293 666q58 0 104.75-19t79.75-53.75 51-84.5 18-111.75-18-111.5-51-84.75-80-54-104.5-18.75q-58.5 0-105.25 18.75t-80.25 54-51.25 84.75-17.75 111.5 17.75 111.75 51.25 84.5 80.25 53.75 105.25 19zM293 214q70.5 0 105 47.25t34.5 135.25-34.5 136-105 48q-71.5 0-106.5-48t-35-136 35-135.25 106.5-47.25zM257 796.5q0-13.5-5.25-25t-14-20-21-13.5-25.25-5-24.5 5-20.25 13.5-13.75 20-5 25 5 25.5 13.75 21 20.25 14 24.5 5q13.5 0 25.5-5t20.75-14 14-21 5.25-25.5zM458.5 796.5q0-13.5-5-25t-14-20-20.75-13.5-25.25-5-24.75 5-20 13.5-14 20-5.25 25 5.25 25.5 14 21 20.25 14 24.5 5q13.5 0 25.25-5t20.75-14 14-21 5-25.5z" />
<glyph unicode="&#xf7;" glyph-name="uniF7" horiz-adv-x="594" d="M49 520.5h495.5v-83h-495.5v83zM225.5 661.5q0 15 5.25 28t15 22.25 22.5 15 28.25 5.75q15 0 28-5.75t22.5-15 15-22.5 5.5-27.75q0-15.5-5.5-28.25t-15-22.5-22.5-15.25-28-5.5q-15.5 0-28.25 5.5t-22.5 15.25-15 22.5-5.25 28.25zM225.5 297q0 15 5.25 27.75t15 22.25 22.5 15.25 28.25 5.75q15 0 28-5.75t22.5-15.25 15-22.5 5.5-27.5q0-15.5-5.5-28.25t-15-22.5-22.5-15.25-28-5.5q-15.5 0-28.25 5.5t-22.5 15.25-15 22.5-5.25 28.25z" />
<glyph unicode="&#xf8;" glyph-name="uniF8" horiz-adv-x="584" d="M479.5 590.5q32.5-35.5 49.75-84t17.25-109.5q0-62-18-111.5t-51-84.75-80-54-104.5-18.75q-76 0-132 31l-22-29.5q-12.5-19-31-26.25t-36-7.25h-41l77 104q-34 35.5-51.75 85t-17.75 112q0 62 17.75 111.75t51.25 84.5 80.25 53.75 105.25 19q38.5 0 72.25-8.5t61.75-25l31 42q5.5 8.5 10.5 14.5t10.75 9.5 12.75 5 17 1.5h54.5zM145 396.5q0-71.5 22.5-115.5l207.5 280.5q-34 22-82 22-36 0-63.75-12.75t-46.25-36.75-28.25-58.75-9.75-78.75zM293 210.5q35.5 0 62.75 12.5t46 36.5 28.5 58.5 9.75 78.5q0 67.5-21 112l-206-278.5q33-19.5 80-19.5z" />
<glyph unicode="&#xf9;" glyph-name="uniF9" horiz-adv-x="574" d="M172 657.5v-332q0-52.5 24.25-81.75t74.25-29.25q36.5 0 67.75 16.5t59.25 46v380.5h110v-522h-66.5q-22 0-28.5 21l-8 48.5q-33.5-35-73.5-56.25t-93.5-21.25q-43 0-75.75 14.25t-55 40.25-33.5 62.75-11.25 80.75v332h110zM239.5 881q19 0 28.25-6.25t16.25-18.75l75-124h-62.5q-13 0-20.75 3.5t-16.25 13l-123.5 132.5h103.5z" />
<glyph unicode="&#xfa;" glyph-name="uniFA" horiz-adv-x="574" d="M172 657.5v-332q0-52.5 24.25-81.75t74.25-29.25q36.5 0 67.75 16.5t59.25 46v380.5h110v-522h-66.5q-22 0-28.5 21l-8 48.5q-33.5-35-73.5-56.25t-93.5-21.25q-43 0-75.75 14.25t-55 40.25-33.5 62.75-11.25 80.75v332h110zM451.5 881l-123.5-132.5q-8-9-16-12.75t-20.5-3.75h-65.5l74 124q7 13 16.5 19t28 6h107z" />
<glyph unicode="&#xfb;" glyph-name="uniFB" horiz-adv-x="574" d="M172 657.5v-332q0-52.5 24.25-81.75t74.25-29.25q36.5 0 67.75 16.5t59.25 46v380.5h110v-522h-66.5q-22 0-28.5 21l-8 48.5q-33.5-35-73.5-56.25t-93.5-21.25q-43 0-75.75 14.25t-55 40.25-33.5 62.75-11.25 80.75v332h110zM455 734h-73.5q-6.5 0-13 2t-13 9.5l-56.5 59q-2.5 2.5-4.75 5.25t-4.75 5.75q-4.5-6-9.5-11l-57-59q-5.5-5.5-12.25-8.5t-14.25-3h-76l116 139h102.5z" />
<glyph unicode="&#xfc;" glyph-name="uniFC" horiz-adv-x="574" d="M172 657.5v-332q0-52.5 24.25-81.75t74.25-29.25q36.5 0 67.75 16.5t59.25 46v380.5h110v-522h-66.5q-22 0-28.5 21l-8 48.5q-33.5-35-73.5-56.25t-93.5-21.25q-43 0-75.75 14.25t-55 40.25-33.5 62.75-11.25 80.75v332h110zM251.5 796.5q0-13.5-5.25-25t-14-20-21-13.5-25.25-5-24.5 5-20.25 13.5-13.75 20-5 25 5 25.5 13.75 21 20.25 14 24.5 5q13.5 0 25.5-5t20.75-14 14-21 5.25-25.5zM453 796.5q0-13.5-5-25t-14-20-20.75-13.5-25.25-5-24.75 5-20 13.5-14 20-5.25 25 5.25 25.5 14 21 20.25 14 24.5 5q13.5 0 25.25-5t20.75-14 14-21 5-25.5z" />
<glyph unicode="&#xfd;" glyph-name="uniFD" horiz-adv-x="535" d="M242.5-13q-5.5-12-13.5-18.5t-24-6.5h-81.5l96 209-213 486.5h96q14 0 21.25-6.25t10.75-15.25l124.5-296q9-25.5 15.5-51.5 4 13.5 8.25 26.25t9.75 25.75l119 295.5q3.5 9 12 15.25t19 6.25h88zM444.5 881l-123.5-132.5q-8-9-16-12.75t-20.5-3.75h-65.5l74 124q7 13 16.5 19t28 6h107z" />
<glyph unicode="&#xfe;" glyph-name="uniFE" horiz-adv-x="578" d="M67-38v931.5h110v-305q32.5 35.5 72.75 56.5t93.25 21q44 0 80-17.5t61.5-51 39.5-83.25 14-114.25q0-58-15.5-107.75t-44.75-86.25-70.75-57.25-93.5-20.75q-46.5 0-78.5 16.75t-58 46.25v-229h-110zM306 579q-42.5 0-72.5-18.25t-56.5-52.25v-242q23-29.5 50.5-41.5t61-12q64.5 0 100.5 47t36 140q0 48-8.25 82.25t-23.5 55.75-37.5 31.25-49.75 9.75z" />
<glyph unicode="&#xff;" glyph-name="uniFF" horiz-adv-x="535" d="M242.5-13q-5.5-12-13.5-18.5t-24-6.5h-81.5l96 209-213 486.5h96q14 0 21.25-6.25t10.75-15.25l124.5-296q9-25.5 15.5-51.5 4 13.5 8.25 26.25t9.75 25.75l119 295.5q3.5 9 12 15.25t19 6.25h88zM244.5 796.5q0-13.5-5.25-25t-14-20-21-13.5-25.25-5-24.5 5-20.25 13.5-13.75 20-5 25 5 25.5 13.75 21 20.25 14 24.5 5q13.5 0 25.5-5t20.75-14 14-21 5.25-25.5zM446 796.5q0-13.5-5-25t-14-20-20.75-13.5-25.25-5-24.75 5-20 13.5-14 20-5.25 25 5.25 25.5 14 21 20.25 14 24.5 5q13.5 0 25.25-5t20.75-14 14-21 5-25.5z" />
<glyph unicode="&#x100;" glyph-name="uni100" horiz-adv-x="703" d="M704.5 135.5h-92.5q-16 0-25.75 8t-14.75 19.5l-61.5 163h-317.5l-61.5-163q-4-10-14.25-18.75t-25.75-8.75h-92.5l292.5 737.5h121zM225 412h252.5l-101 269.5q-6 15-12.5 35.25t-13 43.75q-6-24-12.25-44.25t-12.25-35.25zM203 1008h297v-64.5h-297v64.5z" />
<glyph unicode="&#x101;" glyph-name="uni101" horiz-adv-x="515" d="M404 135.5q-16 0-24.25 4.75t-13.75 19.75l-10.5 42.5q-20-18.5-39.5-32.25t-40.25-23.5-44.5-14.5-52.75-4.75q-31.5 0-59 8.5t-47.5 26.25-31.5 44-11.5 61.25q0 30 16.25 58.75t53.25 51.5 97.75 37.75 149.75 17v35q0 56.5-24 84t-70.5 27.5q-31.5 0-53.25-8t-37.5-17.25-28-17.25-26.25-8q-11.5 0-19.25 6t-13.25 14.5l-19.5 36q88.5 82.5 210.5 82.5 45 0 80.25-14.5t59-41.25 36.25-63.25 12.5-81v-332h-49zM212 204q43 0 74 16.25t60 46.25v97.5q-59-2.5-99.25-9.75t-65.5-19-36.25-27.5-11-34.75q0-18.5 6-31.5t16.5-21.25 24.5-12.25 31-4zM103.5 832.5h300v-71.5h-300v71.5z" />
<glyph unicode="&#x102;" glyph-name="uni102" horiz-adv-x="703" d="M704.5 135.5h-92.5q-16 0-25.75 8t-14.75 19.5l-61.5 163h-317.5l-61.5-163q-4-10-14.25-18.75t-25.75-8.75h-92.5l292.5 737.5h121zM225 412h252.5l-101 269.5q-6 15-12.5 35.25t-13 43.75q-6-24-12.25-44.25t-12.25-35.25zM351.5 926.5q-37.5 0-67.5 8.25t-51 25.25-32.25 43-11.25 61.5h84.5q0-33.5 17-52.25t60.5-18.75q43 0 59.75 18.75t16.75 52.25h84.5q0-32.5-11.25-58t-32.25-43.25-50.5-27.25-67-9.5z" />
<glyph unicode="&#x103;" glyph-name="uni103" horiz-adv-x="515" d="M404 135.5q-16 0-24.25 4.75t-13.75 19.75l-10.5 42.5q-20-18.5-39.5-32.25t-40.25-23.5-44.5-14.5-52.75-4.75q-31.5 0-59 8.5t-47.5 26.25-31.5 44-11.5 61.25q0 30 16.25 58.75t53.25 51.5 97.75 37.75 149.75 17v35q0 56.5-24 84t-70.5 27.5q-31.5 0-53.25-8t-37.5-17.25-28-17.25-26.25-8q-11.5 0-19.25 6t-13.25 14.5l-19.5 36q88.5 82.5 210.5 82.5 45 0 80.25-14.5t59-41.25 36.25-63.25 12.5-81v-332h-49zM212 204q43 0 74 16.25t60 46.25v97.5q-59-2.5-99.25-9.75t-65.5-19-36.25-27.5-11-34.75q0-18.5 6-31.5t16.5-21.25 24.5-12.25 31-4zM253.5 731q-41.5 0-70 11.25t-46 30.75-24.75 45-7.25 55h77q0-16.5 3.5-29.5t11.25-22.25 21.5-14.5 34.75-5.25q20.5 0 34.25 5.25t21.75 14.5 11.25 22.25 3.25 29.5h77.5q0-29-7.5-54.75t-25-45.25-45.75-30.75-69.75-11.25z" />
<glyph unicode="&#x104;" glyph-name="uni104" horiz-adv-x="702" d="M707 34q8 0 11-7l16.5-41q-16.5-12-40.75-19t-51.75-7q-48 0-74.5 20.5t-26.5 54q0 28.5 19.25 54.5t52.25 46.5h-1q-16 0-25.75 8t-14.75 19.5l-61.5 163h-317.5l-61.5-163q-4-10-14.25-18.75t-25.75-8.75h-92.5l292.5 737.5h121l292.5-737.5h-23.5q-10-5.5-20.25-13.25t-18.25-17-13.25-20.25-5.25-23q0-17 11-27t30.5-10q11 0 17.5 1.5t11.25 3 7.75 3 5.5 1.5zM224.5 412h252.5l-101 269.5q-6 15-12.5 35.25t-13 43.75q-6-24-12.25-44.25t-12.25-35.25z" />
<glyph unicode="&#x105;" glyph-name="uni105" horiz-adv-x="515" d="M479.5 34q8 0 11-7l17-41q-16.5-12-40.75-19t-52.25-7q-48 0-74.25 20.5t-26.25 54q0 29 20 55.5t53.5 47q-14.5 3.5-21.5 23l-10.5 42.5q-20-18.5-39.5-32.25t-40.25-23.5-44.5-14.5-52.75-4.75q-31.5 0-59 8.5t-47.5 26.25-31.5 44-11.5 61.25q0 30 16.25 58.75t53.25 51.5 97.75 37.75 149.75 17v35q0 56.5-24 84t-70.5 27.5q-31.5 0-53.25-8t-37.5-17.25-28-17.25-26.25-8q-11.5 0-19.25 6t-13.25 14.5l-19.5 36q88.5 82.5 210.5 82.5 45 0 80.25-14.5t59-41.25 36.25-63.25 12.5-81v-332q-10-5.5-20-13.25t-18.25-17-13.25-20.25-5-23q0-17 11-27t30.5-10q11 0 17.5 1.5t11 3 7.5 3 5.5 1.5zM212 204q43 0 74 16.25t60 46.25v97.5q-59-2.5-99.25-9.75t-65.5-19-36.25-27.5-11-34.75q0-18.5 6-31.5t16.5-21.25 24.5-12.25 31-4z" />
<glyph unicode="&#x106;" glyph-name="uni106" horiz-adv-x="680" d="M599 300q9.5 0 17-8l47.5-51.5q-45-54.5-110.5-83.75t-156.5-29.25q-81 0-146.25 27.75t-111.5 77.75-71 119-24.75 152 26.5 152.5 74.25 119.25 114.5 77.5 147.25 27.75q80 0 141.25-25.75t106.25-68.75l-39.5-56q-4-5.5-9.75-9.75t-15.25-4.25q-10 0-23.25 9.5t-33.5 21-50.75 21-76 9.5q-52.5 0-96.75-18.5t-76-53.75-49.25-86-17.5-115.25q0-65 18.5-116t50.75-86 75.75-53.5 93.5-18.5q30.5 0 55 3.5t45 10.75 38.5 18.75 36 27.5q10.5 9.5 20.5 9.5zM620.5 1086.5l-166.5-146.5q-9-8-17.25-10.25t-20.75-2.25h-79.5l113 140q4.5 6.5 9 10t10.25 5.75 12.5 2.75 16.25 0.5h123z" />
<glyph unicode="&#x107;" glyph-name="uni107" horiz-adv-x="492" d="M436 555.5q-5-6.5-9.5-10.25t-13.5-3.75q-8.5 0-18 6.25t-22.5 13.5-31.5 13.5-46 6.25q-36 0-62.75-12.75t-45-36.75-27.25-58-9-76.5q0-44 9.75-78.25t28-57.75 44-35.75 58.25-12.25q31.5 0 51.5 7.5t33.25 16.75 22.75 17 20.5 7.75q13.5 0 20.5-10.5l31-40q-19-23-42-39t-48.5-26-53.25-14.25-55.75-4.25q-48.5 0-91 18t-73.75 52.75-49.5 84.5-18.25 113.75q0 58 16.25 107.5t47.75 85.25 78.25 56 107.75 20.25q57 0 100-18.5t77-52zM449 881l-123.5-132.5q-8-9-16-12.75t-20.5-3.75h-65.5l74 124q7 13 16.5 19t28 6h107z" />
<glyph unicode="&#x108;" glyph-name="uni108" horiz-adv-x="680" d="M599 300q9.5 0 17-8l47.5-51.5q-45-54.5-110.5-83.75t-156.5-29.25q-81 0-146.25 27.75t-111.5 77.75-71 119-24.75 152 26.5 152.5 74.25 119.25 114.5 77.5 147.25 27.75q80 0 141.25-25.75t106.25-68.75l-39.5-56q-4-5.5-9.75-9.75t-15.25-4.25q-10 0-23.25 9.5t-33.5 21-50.75 21-76 9.5q-52.5 0-96.75-18.5t-76-53.75-49.25-86-17.5-115.25q0-65 18.5-116t50.75-86 75.75-53.5 93.5-18.5q30.5 0 55 3.5t45 10.75 38.5 18.75 36 27.5q10.5 9.5 20.5 9.5zM589.5 927.5h-80q-7 0-16.75 2.5t-20.25 15.5l-50.5 62q-2 2.5-3.5 4.75t-3 4.75q-1.5-2.5-3.25-4.75t-3.75-4.75l-50.5-62q-10-13-19.75-15.5t-17.25-2.5h-76l122.5 140.5h99z" />
<glyph unicode="&#x109;" glyph-name="uni109" horiz-adv-x="492" d="M436 555.5q-5-6.5-9.5-10.25t-13.5-3.75q-8.5 0-18 6.25t-22.5 13.5-31.5 13.5-46 6.25q-36 0-62.75-12.75t-45-36.75-27.25-58-9-76.5q0-44 9.75-78.25t28-57.75 44-35.75 58.25-12.25q31.5 0 51.5 7.5t33.25 16.75 22.75 17 20.5 7.75q13.5 0 20.5-10.5l31-40q-19-23-42-39t-48.5-26-53.25-14.25-55.75-4.25q-48.5 0-91 18t-73.75 52.75-49.5 84.5-18.25 113.75q0 58 16.25 107.5t47.75 85.25 78.25 56 107.75 20.25q57 0 100-18.5t77-52zM452.5 734h-73.5q-6.5 0-13 2t-13 9.5l-56.5 59q-2.5 2.5-4.75 5.25t-4.75 5.75q-4.5-6-9.5-11l-57-59q-5.5-5.5-12.25-8.5t-14.25-3h-76l116 139h102.5z" />
<glyph unicode="&#x10a;" glyph-name="uni10A" horiz-adv-x="680" d="M599 300q9.5 0 17-8l47.5-51.5q-45-54.5-110.5-83.75t-156.5-29.25q-81 0-146.25 27.75t-111.5 77.75-71 119-24.75 152 26.5 152.5 74.25 119.25 114.5 77.5 147.25 27.75q80 0 141.25-25.75t106.25-68.75l-39.5-56q-4-5.5-9.75-9.75t-15.25-4.25q-10 0-23.25 9.5t-33.5 21-50.75 21-76 9.5q-52.5 0-96.75-18.5t-76-53.75-49.25-86-17.5-115.25q0-65 18.5-116t50.75-86 75.75-53.5 93.5-18.5q30.5 0 55 3.5t45 10.75 38.5 18.75 36 27.5q10.5 9.5 20.5 9.5zM485 1001.5q0-14-5.75-26.5t-15.75-22.25-23-15.5-27-5.75-26.25 5.75-21.75 15.5-15.25 22.25-5.75 26.5q0 14.5 5.75 27.5t15.25 22.5 21.75 15.25 26.25 5.75q14.5 0 27.25-5.75t22.75-15.25 15.75-22.5 5.75-27.5z" />
<glyph unicode="&#x10b;" glyph-name="uni10B" horiz-adv-x="492" d="M436 555.5q-5-6.5-9.5-10.25t-13.5-3.75q-8.5 0-18 6.25t-22.5 13.5-31.5 13.5-46 6.25q-36 0-62.75-12.75t-45-36.75-27.25-58-9-76.5q0-44 9.75-78.25t28-57.75 44-35.75 58.25-12.25q31.5 0 51.5 7.5t33.25 16.75 22.75 17 20.5 7.75q13.5 0 20.5-10.5l31-40q-19-23-42-39t-48.5-26-53.25-14.25-55.75-4.25q-48.5 0-91 18t-73.75 52.75-49.5 84.5-18.25 113.75q0 58 16.25 107.5t47.75 85.25 78.25 56 107.75 20.25q57 0 100-18.5t77-52zM359 818q0-15-5.75-28t-16-23-24-15.75-28.25-5.75q-15 0-28 5.75t-23 15.75-16 23-6 28q0 15.5 6 29t16 23.5 23 15.75 28 5.75 28.5-5.75 23.75-15.75 16-23.5 5.75-29z" />
<glyph unicode="&#x10c;" glyph-name="uni10C" horiz-adv-x="680" d="M599 300q9.5 0 17-8l47.5-51.5q-45-54.5-110.5-83.75t-156.5-29.25q-81 0-146.25 27.75t-111.5 77.75-71 119-24.75 152 26.5 152.5 74.25 119.25 114.5 77.5 147.25 27.75q80 0 141.25-25.75t106.25-68.75l-39.5-56q-4-5.5-9.75-9.75t-15.25-4.25q-10 0-23.25 9.5t-33.5 21-50.75 21-76 9.5q-52.5 0-96.75-18.5t-76-53.75-49.25-86-17.5-115.25q0-65 18.5-116t50.75-86 75.75-53.5 93.5-18.5q30.5 0 55 3.5t45 10.75 38.5 18.75 36 27.5q10.5 9.5 20.5 9.5zM241 1068h80q6.5 0 16.5-2t17.5-12l53.5-67.5 7-10.5 6.5 10.5 53 67q7.5 10 17.5 12.25t17 2.25h80l-123-140.5h-102.5z" />
<glyph unicode="&#x10d;" glyph-name="uni10D" horiz-adv-x="492" d="M436 555.5q-5-6.5-9.5-10.25t-13.5-3.75q-8.5 0-18 6.25t-22.5 13.5-31.5 13.5-46 6.25q-36 0-62.75-12.75t-45-36.75-27.25-58-9-76.5q0-44 9.75-78.25t28-57.75 44-35.75 58.25-12.25q31.5 0 51.5 7.5t33.25 16.75 22.75 17 20.5 7.75q13.5 0 20.5-10.5l31-40q-19-23-42-39t-48.5-26-53.25-14.25-55.75-4.25q-48.5 0-91 18t-73.75 52.75-49.5 84.5-18.25 113.75q0 58 16.25 107.5t47.75 85.25 78.25 56 107.75 20.25q57 0 100-18.5t77-52zM118 873h76q7 0 13.25-2.75t9.75-5.75l59.5-62.5 5.25-5.25t5.25-6.25q4 6 9.5 11.5l59.5 62.5q4 2.5 10.25 5.5t12.75 3h73.5l-116-139h-102.5z" />
<glyph unicode="&#x10e;" glyph-name="uni10E" horiz-adv-x="779" d="M734.5 504q0-82-26.5-149.75t-75-116.25-116.25-75.5-150.75-27h-278.5v737.5h278.5q83 0 150.75-27t116.25-75.75 75-116.5 26.5-149.75zM612.5 504q0 63.5-17.25 114.25t-49.25 85.5-77.5 53.5-102.5 18.75h-158v-543.5h158q57 0 102.5 18.25t77.5 53.5 49.25 85.5 17.25 114.25zM175 1068h80q6.5 0 16.5-2t17.5-12l53.5-67.5 7-10.5 6.5 10.5 53 67q7.5 10 17.5 12.25t17 2.25h80l-123-140.5h-102.5z" />
<glyph unicode="&#x10f;" glyph-name="uni10F" horiz-adv-x="578" d="M444 135.5q-22 0-28.5 21l-9.5 56.5q-16.5-19-34.75-34.75t-39.5-27-45.5-17.25-51.75-6q-44 0-79.75 17.5t-61.5 51.25-39.75 83.75-14 114.5q0 58.5 15.5 108.25t44.75 86.25 71 57.25 93.25 20.75q46 0 78.5-14.5t58-41v281.5h110v-758h-66.5zM271.5 216.5q42 0 72.25 17.75t56.75 51.75v243q-23.5 29-51 41.25t-59.5 12.25q-64.5 0-101-47.25t-36.5-140.25q0-48 8.25-82t23.5-55.5 37.5-31.25 49.75-9.75zM660 894.5q13 0 16-6t3-12q0-4.5-1.75-13t-7-23.5-14-38.75-22.75-59.25q-6-13-15.25-16.75t-23.75-3.75h-38.5l30 173h74z" />
<glyph unicode="&#x110;" glyph-name="uni110" horiz-adv-x="788" d="M0.5 541.5h96.5v331.5h278.5q83 0 150.75-27t116-75.75 75-116.5 26.75-149.75-26.75-149.75-75-116.25-116.25-75.5-150.5-27h-278.5v337h-96.5v69zM621.5 504q0 63.5-17 114.25t-49 85.5-77.75 53.5-102.25 18.75h-158.5v-234.5h142v-69h-142v-240h158.5q57 0 102.5 18.25t77.5 53.5 49 85.5 17 114.25z" />
<glyph unicode="&#x111;" glyph-name="uni111" horiz-adv-x="578" d="M282.5 787h119v106.5h109.5v-106.5h74.5v-70h-74.5v-581.5h-66.5q-22 0-28 21l-10 56.5q-32.5-38-74.25-61.5t-96.75-23.5q-44 0-80 16.25t-61.75 49-39.75 81.5-14 113.25q0 58.5 15.5 107t44.75 83.75 71 55 93.75 19.75q46 0 78.5-14.75t58-40.75v119h-119v70zM272.5 216.5q41.5 0 72.25 18t56.75 52v228.5q-23.5 29.5-51 41.5t-60 12-57.75-10.75-43-33-27-56.25-9.25-80.5q0-48 8-80.75t23.25-53 37.5-29 50.25-8.75z" />
<glyph unicode="&#x112;" glyph-name="uni112" horiz-adv-x="590" d="M547.5 873v-97h-339.5v-222h271v-94h-271v-227.5h340l-0.5-97h-460v737.5h460zM176.5 1008h297v-64.5h-297v64.5z" />
<glyph unicode="&#x113;" glyph-name="uni113" horiz-adv-x="544" d="M285.5 666q48 0 89-15.75t70.75-45.75 46.5-74 16.75-99.5q0-25.5-5.75-34.25t-20.25-8.75h-335.5q2-44.5 13.75-77t31.5-54 47.25-32 61-10.5q32.5 0 56 7.25t40.75 16.25 29.75 16.5 22.5 7.5q13.5 0 20.5-10.5l31-40q-19.5-23-44-39t-52-26-56.75-14.25-56.75-4.25q-54.5 0-100.75 18t-80.25 53.5-53.25 87.75-19.25 120.25q0 54.5 17 101.5t49 81.75 77.75 55 103.75 20.25zM287.5 586q-60 0-94.25-34.25t-43.25-96.25h259.5q0 27.5-8 51.5t-23.25 41.5-38.25 27.5-52.5 10zM138.5 832.5h300v-71.5h-300v71.5z" />
<glyph unicode="&#x114;" glyph-name="uni114" horiz-adv-x="590" d="M547.5 873v-97h-339.5v-222h271v-94h-271v-227.5h340l-0.5-97h-460v737.5h460zM325 926.5q-37.5 0-67.5 8.25t-51 25.25-32.25 43-11.25 61.5h84.5q0-33.5 17-52.25t60.5-18.75q43 0 59.75 18.75t16.75 52.25h84.5q0-32.5-11.25-58t-32.25-43.25-50.5-27.25-67-9.5z" />
<glyph unicode="&#x115;" glyph-name="uni115" horiz-adv-x="544" d="M285.5 666q48 0 89-15.75t70.75-45.75 46.5-74 16.75-99.5q0-25.5-5.75-34.25t-20.25-8.75h-335.5q2-44.5 13.75-77t31.5-54 47.25-32 61-10.5q32.5 0 56 7.25t40.75 16.25 29.75 16.5 22.5 7.5q13.5 0 20.5-10.5l31-40q-19.5-23-44-39t-52-26-56.75-14.25-56.75-4.25q-54.5 0-100.75 18t-80.25 53.5-53.25 87.75-19.25 120.25q0 54.5 17 101.5t49 81.75 77.75 55 103.75 20.25zM287.5 586q-60 0-94.25-34.25t-43.25-96.25h259.5q0 27.5-8 51.5t-23.25 41.5-38.25 27.5-52.5 10zM288.5 731q-41.5 0-70 11.25t-46 30.75-24.75 45-7.25 55h77q0-16.5 3.5-29.5t11.25-22.25 21.5-14.5 34.75-5.25q20.5 0 34.25 5.25t21.75 14.5 11.25 22.25 3.25 29.5h77.5q0-29-7.5-54.75t-25-45.25-45.75-30.75-69.75-11.25z" />
<glyph unicode="&#x116;" glyph-name="uni116" horiz-adv-x="590" d="M547.5 873v-97h-339.5v-222h271v-94h-271v-227.5h340l-0.5-97h-460v737.5h460zM394.5 1001.5q0-14-5.75-26.5t-15.75-22.25-23-15.5-27-5.75-26.25 5.75-21.75 15.5-15.25 22.25-5.75 26.5q0 14.5 5.75 27.5t15.25 22.5 21.75 15.25 26.25 5.75q14.5 0 27.25-5.75t22.75-15.25 15.75-22.5 5.75-27.5z" />
<glyph unicode="&#x117;" glyph-name="uni117" horiz-adv-x="544" d="M285.5 666q48 0 89-15.75t70.75-45.75 46.5-74 16.75-99.5q0-25.5-5.75-34.25t-20.25-8.75h-335.5q2-44.5 13.75-77t31.5-54 47.25-32 61-10.5q32.5 0 56 7.25t40.75 16.25 29.75 16.5 22.5 7.5q13.5 0 20.5-10.5l31-40q-19.5-23-44-39t-52-26-56.75-14.25-56.75-4.25q-54.5 0-100.75 18t-80.25 53.5-53.25 87.75-19.25 120.25q0 54.5 17 101.5t49 81.75 77.75 55 103.75 20.25zM287.5 586q-60 0-94.25-34.25t-43.25-96.25h259.5q0 27.5-8 51.5t-23.25 41.5-38.25 27.5-52.5 10zM362 818q0-15-5.75-28t-16-23-24-15.75-28.25-5.75q-15 0-28 5.75t-23 15.75-16 23-6 28q0 15.5 6 29t16 23.5 23 15.75 28 5.75 28.5-5.75 23.75-15.75 16-23.5 5.75-29z" />
<glyph unicode="&#x118;" glyph-name="uni118" horiz-adv-x="590" d="M527.5 34q8 0 10.5-7l17-41q-16.5-12-40.75-19t-51.75-7q-48 0-74.5 20.5t-26.5 54q0 28.5 19.25 54.5t51.75 46.5h-345v737.5h460v-97h-339.5v-222h271v-94h-271v-227.5h340l-0.5-97h-47q-10-5.5-20-13.25t-18.25-17-13.25-20.25-5-23q0-17 11-27t30.5-10q11 0 17.5 1.5t11 3 7.75 3 5.75 1.5z" />
<glyph unicode="&#x119;" glyph-name="uni119" horiz-adv-x="544" d="M382 34q8 0 10.5-7l17-41q-16.5-12-40.75-19t-51.75-7q-48 0-74.5 20.5t-26.5 54q0 26 16.25 50.25t44.25 43.75q-51.5 2.5-95.25 21.75t-75.75 54.5-49.75 86.25-17.75 116.5q0 54.5 17 101.5t49 81.75 78 55 103.5 20.25q48 0 89-15.75t70.75-45.75 46.5-74 16.75-99.5q0-25.5-5.75-34.25t-20.25-8.75h-335.5q2-44.5 13.75-77t31.5-54 47.25-32 61-10.5q32.5 0 56 7.25t40.75 16.25 29.75 16.5 22.5 7.5q13.5 0 20.5-10.5l31-40q-28.5-34-68.25-53t-82.75-26q-9.5-5.5-18.75-13t-16.75-16.5-11.75-19.5-4.25-21.5q0-17 11-27t30.5-10q11 0 17.5 1.5t11 3 7.75 3 5.75 1.5zM287.5 586q-60 0-94.25-34.25t-43.25-96.25h259.5q0 27.5-8 51.5t-23.25 41.5-38.25 27.5-52.5 10z" />
<glyph unicode="&#x11a;" glyph-name="uni11A" horiz-adv-x="590" d="M547.5 873v-97h-339.5v-222h271v-94h-271v-227.5h340l-0.5-97h-460v737.5h460zM150.5 1068h80q6.5 0 16.5-2t17.5-12l53.5-67.5 7-10.5 6.5 10.5 53 67q7.5 10 17.5 12.25t17 2.25h80l-123-140.5h-102.5z" />
<glyph unicode="&#x11b;" glyph-name="uni11B" horiz-adv-x="544" d="M285.5 666q48 0 89-15.75t70.75-45.75 46.5-74 16.75-99.5q0-25.5-5.75-34.25t-20.25-8.75h-335.5q2-44.5 13.75-77t31.5-54 47.25-32 61-10.5q32.5 0 56 7.25t40.75 16.25 29.75 16.5 22.5 7.5q13.5 0 20.5-10.5l31-40q-19.5-23-44-39t-52-26-56.75-14.25-56.75-4.25q-54.5 0-100.75 18t-80.25 53.5-53.25 87.75-19.25 120.25q0 54.5 17 101.5t49 81.75 77.75 55 103.75 20.25zM287.5 586q-60 0-94.25-34.25t-43.25-96.25h259.5q0 27.5-8 51.5t-23.25 41.5-38.25 27.5-52.5 10zM121 873h76q7 0 13.25-2.75t9.75-5.75l59.5-62.5 5.25-5.25t5.25-6.25q4 6 9.5 11.5l59.5 62.5q4 2.5 10.25 5.5t12.75 3h73.5l-116-139h-102.5z" />
<glyph unicode="&#x11c;" glyph-name="uni11C" horiz-adv-x="745" d="M691 206.5q-110-79.5-256-79-89.5 0-162 27.75t-123.5 77.75-78.75 119-27.75 152q0 83.5 26.75 153t76.25 119.25 119.75 77.25 157.75 27.5q44.5 0 82.75-7t71-19.25 60.25-29.5 50.5-38.75l-34-55q-8-13-21-16t-28 6q-15 8.5-31.5 18.5t-38 18.5-49.75 13.75-66.25 5.25q-58.5 0-105.25-19.25t-80.25-54.75-51.25-86.25-17.75-113.25q0-66 19-118t53.75-88 84-55 110.25-19q45.5 0 81.25 9.75t69.75 27.25v146.5h-102.5q-12 0-18.75 6.25t-6.75 16.75v68h236v-292zM597.5 927.5h-80q-7 0-16.75 2.5t-19.75 15.5l-51 62q-2 2.5-3.5 4.75t-3 4.75q-1.5-2.5-3-4.75t-3.5-4.75l-51-62q-10-13-19.75-15.5t-17.25-2.5h-76l123 140.5h98.5z" />
<glyph unicode="&#x11d;" glyph-name="uni11D" horiz-adv-x="537" d="M253.5 667q34 0 63.25-7.5t53.75-20.5h146.5v-41q0-20.5-24.5-25.5l-52-8.5q13.5-30.5 13-66 0-38.5-15-69.75t-41.75-53.25-63.5-33.75-79.75-11.75q-16.5 0-32 1.75t-30.5 4.75q-15-8.5-22-18.25t-7-19.75q0-17 14.75-25.25t39-11.75 55.5-4.5 63.5-3.75 63.5-8.5 55.5-19.25 39.25-36.75 15-59.75q0-34-17-66.25t-49-57.25-78-40.25-105-15.25q-58.5 0-101.75 11.25t-72 30.5-43 44.25-14.25 52.5q0 37 23.5 63t63 41q-21.5 10-34.5 28t-13 47q0 11.5 4.25 23.75t12.5 24.25 20.75 22.75 29.5 19.25q-39 21.5-61.25 57.5t-22.25 83.5q0 39 15.25 70.25t42.25 53.25 64.25 33.75 81.25 11.75zM406.5 110q0 17-10 27.5t-26.75 16.5-39.75 8.5-48 4.25-51.5 3-51.5 4.75q-24.5-13-39.75-30.75t-15.25-41.75q0-15.5 8-28.75t24.5-22.75 42.5-15.25 62-5.75q72.5 0 109 22.5t36.5 58zM253.5 401q51 0 76.75 26.25t25.75 68.25q0 43-25.75 68t-76.75 25q-50.5 0-76.5-25t-26-68q0-20.5 6.75-38t19.5-30 32-19.5 44.25-7zM433 734h-73.5q-6.5 0-13 2t-13 9.5l-56.5 59q-2.5 2.5-4.75 5.25t-4.75 5.75q-4.5-6-9.5-11l-57-59q-5.5-5.5-12.25-8.5t-14.25-3h-76l116 139h102.5z" />
<glyph unicode="&#x11e;" glyph-name="uni11E" horiz-adv-x="745" d="M691 206.5q-110-79.5-256-79-89.5 0-162 27.75t-123.5 77.75-78.75 119-27.75 152q0 83.5 26.75 153t76.25 119.25 119.75 77.25 157.75 27.5q44.5 0 82.75-7t71-19.25 60.25-29.5 50.5-38.75l-34-55q-8-13-21-16t-28 6q-15 8.5-31.5 18.5t-38 18.5-49.75 13.75-66.25 5.25q-58.5 0-105.25-19.25t-80.25-54.75-51.25-86.25-17.75-113.25q0-66 19-118t53.75-88 84-55 110.25-19q45.5 0 81.25 9.75t69.75 27.25v146.5h-102.5q-12 0-18.75 6.25t-6.75 16.75v68h236v-292zM423.5 926.5q-37.5 0-67.5 8.25t-51 25.25-32.25 43-11.25 61.5h84.5q0-33.5 17-52.25t60.5-18.75q43 0 59.75 18.75t16.75 52.25h84.5q0-32.5-11.25-58t-32.25-43.25-50.5-27.25-67-9.5z" />
<glyph unicode="&#x11f;" glyph-name="uni11F" horiz-adv-x="537" d="M253.5 667q34 0 63.25-7.5t53.75-20.5h146.5v-41q0-20.5-24.5-25.5l-52-8.5q13.5-30.5 13-66 0-38.5-15-69.75t-41.75-53.25-63.5-33.75-79.75-11.75q-16.5 0-32 1.75t-30.5 4.75q-15-8.5-22-18.25t-7-19.75q0-17 14.75-25.25t39-11.75 55.5-4.5 63.5-3.75 63.5-8.5 55.5-19.25 39.25-36.75 15-59.75q0-34-17-66.25t-49-57.25-78-40.25-105-15.25q-58.5 0-101.75 11.25t-72 30.5-43 44.25-14.25 52.5q0 37 23.5 63t63 41q-21.5 10-34.5 28t-13 47q0 11.5 4.25 23.75t12.5 24.25 20.75 22.75 29.5 19.25q-39 21.5-61.25 57.5t-22.25 83.5q0 39 15.25 70.25t42.25 53.25 64.25 33.75 81.25 11.75zM406.5 110q0 17-10 27.5t-26.75 16.5-39.75 8.5-48 4.25-51.5 3-51.5 4.75q-24.5-13-39.75-30.75t-15.25-41.75q0-15.5 8-28.75t24.5-22.75 42.5-15.25 62-5.75q72.5 0 109 22.5t36.5 58zM253.5 401q51 0 76.75 26.25t25.75 68.25q0 43-25.75 68t-76.75 25q-50.5 0-76.5-25t-26-68q0-20.5 6.75-38t19.5-30 32-19.5 44.25-7zM266 731q-41.5 0-70 11.25t-46 30.75-24.75 45-7.25 55h77q0-16.5 3.5-29.5t11.25-22.25 21.5-14.5 34.75-5.25q20.5 0 34.25 5.25t21.75 14.5 11.25 22.25 3.25 29.5h77.5q0-29-7.5-54.75t-25-45.25-45.75-30.75-69.75-11.25z" />
</font>
</defs>
</svg>
